<svg width="235" height="264" viewBox="0 0 235 264" fill="none" xmlns="http://www.w3.org/2000/svg">
<path d="M72.6051 264C38.7972 250.203 22.2914 244.752 0 241.71C2.17519 234.671 4.64092 231.6 8.60668 225.821L25.5994 224.497L24.9373 214.787L58.4813 210.373L219.139 188.525C219.759 191.296 219.482 193.706 219.139 197.794L190.671 203.532L226.201 201.766C229.963 207.879 231.765 211.211 234.367 216.994C232.076 225.253 230.624 229.706 227.746 237.076C196.737 243.334 180.673 249.276 154.038 263.558L150.286 262.675C151.957 255.389 152.482 251.077 149.183 241.048C138.259 219.744 128.763 214.172 106.149 215.007C89.9813 218.595 83.6251 224.407 76.136 240.165C73.1926 249.056 73.4955 254.377 74.8119 264H72.6051Z" fill="#F4F4F4"/>
<path d="M56.9364 204.415C57.1472 207.16 57.5369 208.47 58.7018 210.373L73.0463 208.387C71.486 204.359 70.4915 202.124 65.9844 198.677L60.2466 198.236C59.448 197.686 59.1888 197.35 59.1432 196.691H56.9364C53.593 192.626 52.186 190.346 50.5365 186.319C50.253 181.711 50.7112 179.949 53.1847 179.036C53.9083 178.505 54.145 178.525 54.2881 179.036C53.4609 181.667 53.2418 183.747 53.1847 188.305C53.7042 189.185 54.1091 189.415 54.9502 190.07C61.5824 190.738 64.1061 191.753 67.3085 194.263L78.3427 202.87C80.7327 203.8 81.1118 204.857 81.2116 207.063L97.9836 204.856C97.5288 202.09 96.8142 200.799 94.4527 199.118C87.9949 197.911 82.5082 195.117 71.5015 188.746C70.6461 187.476 70.2523 186.667 69.736 184.995V177.712C72.7419 172.149 74.4083 168.993 76.1359 160.94C77.32 156.15 79.0549 154.094 84.0805 151.671C98.9565 152.194 109.313 151.31 127.114 150.126C126.915 152.866 126.975 154.239 129.321 154.54C132.603 155.818 135.295 158.204 141.017 164.25C143.718 164.686 144.451 164.128 144.327 161.602C142.312 157.443 140.788 154.215 137.927 148.14C137.403 146.037 137.997 144.99 143.003 143.727C144.616 142.17 145.88 143.02 148.52 146.375C150.933 146.372 152.192 146.424 153.155 147.258C156.245 150.302 158.471 152.115 164.851 155.864L176.106 168.443C181.392 171.212 183.643 172.875 185.595 176.167C188.026 183.301 190.284 185.937 196.85 186.76C197.695 188.526 198.02 188.763 198.174 191.394L215.608 188.746C215.015 181.826 211.952 180.346 203.471 180.36C196.381 174.387 192.731 170.375 186.699 162.264C185.959 158.716 180.143 149.414 172.796 137.327C171.441 135.214 170.858 135.373 170.147 138.21C167.386 137.321 166.695 137.496 167.94 139.754C170.723 141.618 172.142 142.861 173.899 146.154C174.809 147.453 174.458 147.831 171.913 147.699C171.093 146.919 170.606 146.518 170.147 145.271C169.439 144.712 169.154 144.727 168.823 145.271C168.766 147.22 168.525 147.585 167.94 147.699C163.584 144.567 161.869 142.829 160.658 139.754C175.09 131.738 185.922 126.169 188.023 122.982L192.878 121.217C193.384 125.729 193.407 128.167 193.319 132.472C190.678 138.042 190.902 140.186 193.319 142.844C192.882 144.024 191.837 144.743 188.023 146.154C187.586 151.448 187.115 154.301 188.023 160.278L191.112 159.395C195.141 158.362 196.994 156.423 199.719 151.009C200.433 147.722 201.304 146.034 204.353 143.506C200.367 130.073 199.984 125.156 202.809 121.217C203.227 118.64 203.238 117.134 202.809 114.376C201.32 112.366 200.456 111.261 198.616 109.521C187.571 111.096 181.758 111.785 173.899 111.727C173.964 103.826 173.328 101.028 171.913 96.7209C174.542 96.2707 174.221 95.6195 171.913 94.0727L175.223 93.852C176.942 90.5697 177.849 88.3016 179.857 87.2315C182.629 91.4598 179.892 94.1156 173.899 98.9278C173.786 100.582 173.94 101.47 175.002 102.9C177.166 104.046 178.133 102.208 179.857 98.9291L179.857 98.9278C182.555 98.7381 182.96 99.2439 182.285 100.914L179.195 102.9C178.364 105.962 178.896 106.978 182.285 107.093C189.302 104.81 192.276 101.743 196.629 94.5141C199.873 92.591 201.403 91.2519 202.809 87.6729C203.74 88.3219 204.408 88.4686 205.898 88.3349C207.464 85.3134 208.603 83.6597 212.96 81.0524L212.298 76.8594C211.355 74.9563 211.106 74.023 214.505 74.2111C215.634 74.4129 215.834 73.807 215.388 72.0043L211.857 67.5906C209.973 66.2701 209.891 65.3683 214.505 62.9563C215.264 62.0907 215.817 61.6846 215.388 60.0874C209.275 59.3529 206.302 59.6957 201.264 60.7494C199.333 56.9676 197.39 55.7239 191.774 55.6737C188.599 52.6795 186.39 52.6614 182.064 54.1289C180.142 51.8039 177.015 51.2851 167.499 54.5702C164.203 52.7922 161.916 53.3333 157.127 56.7771C153.523 56.4262 151.258 57.6974 146.313 65.3838H141.017L139.252 66.2665C137.625 69.2601 135.219 71.2757 128.879 75.3146C124.791 81.364 122.428 85.1147 119.39 85.9074C117.454 82.9123 115.914 81.5214 112.107 79.7282L112.769 77.9628C114.152 75.6865 115.489 76.0219 118.728 79.0662C121.208 79.897 122.53 79.7905 124.686 77.9628C124.738 72.9137 124.129 70.5804 118.728 69.7975C113.954 71.1391 110.487 70.9296 101.515 67.1493C99.3244 64.1429 98.4802 62.3603 96.8802 59.2046C94.5019 56.9676 91.886 55.2641 87.6115 52.3634C86.6485 51.1879 86.3513 50.4305 86.9494 48.6118C87.3417 47.5592 88.0444 47.1346 89.3769 46.4049C89.6031 45.5551 89.6097 44.3527 89.3769 41.1085C91.8585 40.3284 92.6009 39.2119 92.6872 36.0328C91.67 34.2467 92.0576 32.4621 93.1286 28.9709C92.9624 27.3564 91.5815 27.2529 87.8321 27.8675L79.6668 31.8398C76.4237 31.8496 75.8296 32.943 74.8118 34.9294C74.4855 36.2799 74.1837 37.067 72.8256 38.681C69.8599 41.0539 68.632 42.6961 67.5292 46.4049C65.5506 42.6665 64.1312 41.3942 61.35 39.7844L61.1294 38.4603C56.1713 31.2367 54.2107 26.1611 50.7572 17.0539V15.2885C49.1702 12.644 48.7932 10.4068 49.4331 4.47494C47.1692 2.54071 46.6027 2.48082 46.1228 3.15083C46.3152 5.59642 46.1719 6.95386 45.0194 9.32999C44.2121 7.97448 43.7818 6.30538 43.0332 1.82673C41.5766 -0.53547 40.8602 -0.524369 39.723 1.38536C38.7627 4.31551 38.4722 6.0547 38.3989 9.32999C38.6984 11.972 39.2814 13.5506 43.2539 17.0539C41.5924 21.7015 41.1176 26.5085 40.6057 36.6948C35.6389 38.5341 35.0102 40.4512 35.7507 44.6395L40.1644 54.7909V61.1908C40.5769 68.3298 40.6973 72.4998 43.2539 76.418C42.1793 77.1516 41.728 77.7164 41.7091 79.5076C44.7674 82.3217 45.9435 82.4504 46.1228 77.5214C41.2826 70.8971 41.8909 65.8658 42.1505 57.2185C42.659 55.2098 42.663 54.0576 41.7091 51.922C39.6129 48.3685 38.5188 46.4361 37.2955 43.536C36.8244 40.6038 37.4032 39.4883 41.0471 39.1224C43.1732 38.6284 43.6422 37.858 44.1367 36.2535C44.1347 29.3332 44.556 27.4644 46.1228 27.8675C46.158 31.4109 46.3945 33.7227 47.6676 39.1224C49.8843 43.2575 50.9345 45.6026 50.0951 50.1566C52.0278 52.3947 53.4089 53.3054 56.9364 53.6875C58.4835 55.1955 57.9324 55.6016 56.966 56.3139L56.9364 56.3357C52.4457 60.0849 49.6887 62.611 46.1228 64.7217C46.2226 66.4815 46.6424 67.1796 48.9917 67.1493C48.7072 66.4813 48.6249 66.123 48.9917 65.6045L59.8052 58.9839C61.2638 60.0725 62.1346 60.5532 63.7776 61.1908L63.7501 61.279C62.3499 65.7679 61.5556 68.3142 60.4673 71.5629C58.3771 73.3221 57.9879 74.4186 57.5984 76.418C58.0555 77.5811 58.5881 77.7325 59.8052 77.5214C62.2509 72.9074 64.0586 70.1744 68.1912 66.2665C72.0678 69.7628 74.1114 71.3444 77.2393 72.6664C78.3832 74.3779 78.2957 74.908 77.2393 75.3146C75.0736 75.6337 73.9906 75.8914 73.267 77.08C72.297 78.0284 72.521 78.559 73.267 79.5076C74.4777 79.1003 75.0084 79.214 75.9152 79.5076C72.746 85.9726 70.9582 89.5812 65.3224 92.3073L68.1912 97.6037C69.908 97.5621 70.5223 98.3111 70.8395 101.355C71.6991 100.792 72.5525 100.96 74.1497 101.355C80.8334 100.486 83.6642 100.53 86.9494 102.679C82.305 106.041 77.281 107.433 63.7776 109.079C49.8074 112.886 43.9734 116.967 37.9575 128.499V131.148C34.5785 131.668 33.2366 131.999 32.2197 132.692C29.4891 132.589 27.9988 132.481 26.2613 131.148C23.5507 130.039 22.2346 130 20.0821 130.486C10.4849 136.35 8.12745 140.343 9.93062 148.802C7.49372 151.723 5.67963 153.484 8.38583 154.982L14.1236 154.319C15.8521 153.92 16.1505 154.239 15.6684 155.644C13.7859 156.871 13.4044 157.882 12.5788 159.616C12.2084 161.203 12.0108 162.098 13.4616 164.692C14.8005 164.509 15.396 164.621 16.5511 164.692C17.1329 163.534 17.5338 163.15 18.3166 162.705C21.4204 163.891 23.5395 163.809 27.806 162.705C28.1082 157.308 27.5995 155.323 25.5992 153.437C25.8067 152.658 27.279 152.622 29.7788 152.56L30.0129 152.554C31.2494 149.329 31.3655 146.512 31.337 141.078C33.8478 138.302 35.1655 137.852 37.2955 139.754C38.7454 146.417 41.5357 151.609 48.9917 162.705C48.1386 166.384 44.6236 170.18 36.6334 177.933C35.5659 180.664 36.0296 182.099 38.8402 183.891C44.6446 190.323 47.3919 194.512 48.3297 200.222C49.1991 200.539 49.9718 201.163 52.302 203.753C54.8287 202.301 55.9643 202.157 56.9364 204.415Z" fill="#F4F4F4"/>
<path d="M67.75 204.193C65.7656 204.594 64.9382 205.177 63.7777 206.621H67.75C69.202 205.673 69.2873 205.14 67.75 204.193Z" fill="#FCFCFC"/>
<path d="M93.1287 202.428C92.1118 203.749 91.278 204.349 89.1564 205.076H93.7907C95.3311 203.966 95.043 203.291 93.1287 202.428Z" fill="#FCFCFC"/>
<path d="M53.8469 174.181C47.753 177.243 45.5859 179.259 43.254 183.229C42.4714 182.262 42.1662 181.253 41.9299 178.374C46.9313 176.134 49.3604 174.396 53.1848 170.65C54.4626 171.635 54.4773 172.46 53.8469 174.181Z" fill="#FCFCFC"/>
<path d="M54.7296 165.795V164.471C55.7064 165.278 56.3267 166.061 57.5985 168.222C57.5792 170.602 57.395 171.398 56.9365 172.415C56.5405 169.514 56.2156 167.959 54.7296 165.795Z" fill="#FCFCFC"/>
<path d="M67.3086 178.593C66.7053 177.666 66.367 177.322 65.7638 178.593C65.116 183.809 65.5593 186.052 68.412 188.303C68.9869 188.35 69.2888 188.299 69.7361 187.861C67.4229 184.032 67.2203 182.054 67.3086 178.593Z" fill="#FCFCFC"/>
<path d="M59.364 155.863C55.7454 154.382 54.04 153.322 51.6401 151.008C54.9188 152.115 56.8844 152.707 60.9088 153.656C62.9668 154.35 63.9529 154.851 65.5432 155.863C65.6662 149.904 63.7815 147.48 58.2606 144.166C49.6421 140.549 49.2835 139.278 47.8884 136.884C55.2123 138.812 58.7115 139.915 62.895 141.96C63.1656 140.839 63.1351 140.212 62.895 139.091C61.6289 134.863 60.3003 133.294 57.5985 130.925L60.9088 132.912C65.4904 133.798 67.3 135.979 69.0741 143.063C69.2626 146.213 69.8751 147.899 71.7223 150.787C73.0737 149.238 73.6977 148.007 74.5912 145.27C74.8805 142.941 74.8205 141.57 74.5912 139.091C71.8623 134.298 70.9134 131.49 69.0741 126.512C72.7044 130.81 74.7378 133.212 78.1222 136.443V141.518C76.918 143.176 76.7669 144.09 76.7981 145.711C77.5009 148.985 77.5611 150.434 77.4601 152.773C74.6145 156.491 73.3537 159.178 72.6051 166.676C71.6889 168.226 71.2061 168.55 70.3982 168.221C69.2059 163.258 69.2954 158.948 68.8534 159.394C67.4981 162.424 66.7247 164.333 65.5432 164.69C64.3938 160.915 62.9199 159.013 59.364 155.863Z" fill="#FCFCFC"/>
<path d="M111.225 143.725C116.586 139.83 118.923 136.353 122.921 129.822C123.565 137.634 120.849 140.61 111.225 143.725Z" fill="#FCFCFC"/>
<path d="M140.796 98.9259L136.162 95.6156C142.558 94.9752 143.35 97.3386 144.754 101.53L144.769 101.574L140.796 98.9259Z" fill="#FCFCFC"/>
<path d="M210.312 187.2C207.127 188.117 206.106 188.649 205.236 190.289L211.857 189.406C211.613 188.064 211.305 187.543 210.312 187.2Z" fill="#FCFCFC"/>
<path d="M173.016 155.642C172.485 153.332 171.362 151.718 169.265 148.801C172.222 150.811 173.921 151.833 177.209 152.994C180.421 155.773 182.212 157.33 183.168 159.835V162.925C187.214 167.323 192.676 173.544 199.94 181.021C201.06 182.055 201.856 182.41 203.471 182.786C205.281 183.208 206.295 183.264 208.105 182.786C208.048 183.575 207.797 183.905 207.002 184.331H200.822C197.588 181.946 196.074 181.725 193.761 182.786C192.507 175.562 187.57 171.049 178.092 162.925L177.651 160.497C176.299 158.838 175.584 157.93 173.016 155.642Z" fill="#FCFCFC"/>
<path d="M157.568 120.114C157.934 115.681 156.076 113.122 149.624 108.417C153.623 108.891 155.876 109.175 162.203 113.714C162.838 114.506 164.634 108.51 164.851 101.576C166.73 106.598 167.316 109.446 167.058 114.597L161.32 115.038C160.039 116.112 159.785 116.667 161.32 117.465H167.499C168.833 116.502 169.803 116.027 172.575 115.479C182.643 114.767 187.715 114.312 191.995 113.052C194.144 111.586 195.26 111.276 197.071 111.728C198.982 113.629 199.504 114.997 200.381 117.465C200.373 118.93 200.195 119.923 199.498 122.1C199.109 129.418 198.314 133.071 199.94 141.961C198.069 143.853 197.52 143.789 197.292 141.961C197.818 141.522 197.95 141.24 197.733 140.637C194.904 137.479 195.322 136.17 196.85 134.017C197.438 122.937 196.718 119.302 193.099 118.569C183.65 119.09 179.741 120.662 173.678 124.307C169.642 127.721 167.317 129.722 164.851 130.927C162.27 131.539 160.76 132.032 158.892 130.927C157.122 127.393 156.132 125.455 154.479 123.424H152.051C149.933 121.923 148.894 121.222 147.196 120.114C146.403 118.574 146.377 117.904 146.534 116.803C152.469 117.457 155.336 118.004 157.568 120.114Z" fill="#FCFCFC"/>
<path d="M123.583 86.3474C123.199 87.5462 123.146 88.1835 123.583 89.2163C127.963 88.5174 130.354 88.0325 133.735 85.906C139.574 87.1106 142.361 87.7063 146.093 88.5542C147.231 87.3521 148.541 86.9239 151.389 86.3474C151.692 85.7882 149.222 85.6364 143.224 85.4646L140.797 84.1405H138.81C137.793 83.3115 137.322 82.8241 136.604 81.9337C134.607 81.5343 133.916 80.925 133.293 79.2855H142.341C143.248 78.5412 143.207 78.1942 141.9 77.7407C140.419 77.2291 139.831 76.4808 138.81 75.0925C139.064 74.3851 139.305 74.164 140.355 74.8718C141.672 75.195 142.708 75.0143 144.769 74.4304L149.624 77.0786C150.036 77.1987 150.269 77.2084 150.727 75.5339C152.13 69.5695 153.486 67.2919 156.907 65.3824C157.306 64.5061 157.576 63.9877 158.231 62.9549C158.599 62.486 158.846 62.531 159.334 62.9549C159.183 64.8685 159.272 65.4238 159.555 66.0444L157.569 68.6926C157.289 69.996 157.518 70.3495 158.231 70.6788C159.416 68.4528 160.4 67.4746 163.306 66.7065C163.486 65.7352 164.503 64.2405 168.603 59.2032C169.342 58.6341 169.444 59.4149 169.265 62.0721L167.058 65.8237C166.664 67.3409 167.036 67.8204 168.382 68.2514C168.932 65.9692 169.954 64.7269 176.106 62.7343C177.329 62.0704 178.016 61.6966 179.637 59.2032C180.943 59.1828 180.827 60.1903 177.43 65.8237C176.842 67.0959 177.001 67.4156 178.313 67.148C185.092 64.9505 188.469 63.7595 190.009 62.0721C191.61 62.8615 191.668 63.7236 189.788 66.2652L184.051 69.3548C183.435 70.5744 183.583 70.948 184.271 71.341C190.326 68.8268 193.627 67.7768 198.616 69.3548C199.356 69.7915 197.827 70.602 191.333 73.1065C189.892 73.8943 189.452 74.4807 188.685 75.534L189.126 77.0788C188.554 78.0411 188.101 78.4963 186.92 79.0649C186.423 80.0632 186.362 80.6003 186.92 81.4925L189.126 79.0649L189.788 79.9477C188.943 82.3849 189.054 83.7933 190.009 86.3475L189.126 88.113C189.078 88.9112 189.353 89.0109 190.009 88.9957C191.217 88.4189 191.894 87.8809 193.099 86.3475C193.524 83.7397 193.808 82.6255 194.423 81.4925C194.791 81.2173 195.048 81.2838 195.526 81.4925C195.448 83.1939 195.84 84.3753 197.292 86.7889C197.451 88.2832 197.328 89.0848 195.968 90.3198C195.488 90.0202 195.24 89.648 194.864 88.3337C194.347 87.997 194.057 87.8626 193.54 88.3337C193.255 89.1093 193.133 89.5444 193.54 90.3198L189.126 94.9542C188.394 96.7819 189.042 96.9035 190.671 96.7197L194.864 94.0714C195.3 93.6253 195.421 93.267 195.526 92.5267C198.895 90.7153 200.6 88.7477 203.25 83.2579C201.652 81.9112 201.004 80.973 200.161 79.0649C199.842 76.6543 199.983 75.3018 200.381 72.8858L201.485 68.6928C202.059 68.1692 202.462 68.2474 203.25 68.6928C202.719 71.162 202.121 72.3775 202.809 75.534C204.277 76.7564 205.098 77.8884 206.56 80.389C207.007 80.9223 207.208 80.9632 207.443 80.389C207.564 79.2853 207.025 78.2454 205.457 75.9753C205.187 75.1151 205.175 74.6284 205.457 73.7685C206.319 73.2026 206.802 73.2442 207.664 73.7685C208.261 76.4281 208.776 77.517 209.871 79.0649C210.416 79.3017 210.541 79.067 210.312 77.7408L209.209 73.1065C209.383 72.5423 209.584 72.2664 210.533 72.003H212.298C212.58 71.6754 212.666 71.4437 212.298 70.6789L207.222 65.6032C207.788 64.4159 208.327 63.7699 210.533 62.7343C210.708 61.9783 210.531 61.7338 209.65 61.6309C207.48 62.1542 206.066 62.7223 203.471 63.8377C201.938 64.5328 201.025 64.7296 199.057 63.8377C198.035 61.4497 197.31 60.2277 195.085 58.762C193.38 59.0237 192.372 59.0364 190.451 58.762C187.321 55.4947 186.133 55.9063 184.271 57.6586H182.727C179.653 55.786 177.821 54.4499 176.327 56.7755H174.341C172.294 55.8859 171.372 56.3676 169.927 58.0996H168.382C164.226 55.5459 162.338 56.1914 159.555 60.086H155.362C147.893 66.2181 144.848 69.6963 141.9 68.6926L139.472 71.1202C136.592 75.6426 134.492 77.2323 129.542 77.7407C129.595 78.9435 129.595 79.5716 129.542 80.6096C126.942 82.6705 125.677 83.9535 123.583 86.3474Z" fill="#FCFCFC"/>
<path d="M112.108 96.4995C109.777 99.3401 109.013 101.015 112.108 104.665C112.712 104.485 113.116 104.286 114.094 103.561C114.548 104.293 114.963 104.499 115.859 104.665C117.344 103.599 118.301 103.161 120.273 102.679C123.569 104.619 124.999 105.762 126.231 107.975C126.339 108.282 124.559 108.646 119.17 109.52C121.496 111.768 123.476 114.448 127.114 119.451C134.484 125.487 136.298 128.522 135.279 133.354L146.755 138.65L148.741 143.064C150.265 144.589 150.795 144.263 151.389 142.402C150.004 138.858 149.659 137.184 149.403 134.457L144.548 127.175C144.055 125.861 143.828 125.094 143.886 123.423C142.812 123.082 142.186 122.844 140.797 121.878L135.279 113.272C132.737 109.3 130.502 109.198 125.569 111.506C127.025 108.91 128.244 107.679 131.307 105.989C130.56 103.26 128.11 101.408 123.363 98.0443C121.569 96.321 120.964 95.2574 120.714 93.1893C120.111 92.7338 119.773 92.6173 119.17 93.1893C116.794 95.2096 115.24 95.9193 112.108 96.4995Z" fill="#FCFCFC"/>
<path d="M54.5089 41.3286C53.4227 41.9219 53.0631 41.8434 52.5228 41.3286C48.5003 30.08 47.2228 24.7828 47.0057 17.4947C47.5294 16.1012 47.9717 16.1421 48.9918 17.4947L51.64 23.2325C52.6758 30.8001 53.9743 34.1304 57.3778 38.6804C56.1433 39.6516 55.5128 40.2532 54.5089 41.3286Z" fill="#FCFCFC"/>
<path d="M54.5089 45.7421C54.2553 46.3895 54.1992 46.7658 54.5089 47.5076C57.2896 44.301 59.388 43.2887 63.7777 42.4319C62.9719 41.4288 62.3631 40.9896 60.6881 40.6664C57.9804 42.582 56.5518 43.6762 54.5089 45.7421Z" fill="#FCFCFC"/>
<path d="M62.0122 45.9628H64.4397C65.1127 44.348 65.3544 44.4085 65.7638 44.6387C66.6534 46.9199 68.0241 48.1735 72.3844 50.3765C78.769 53.9978 81.1887 55.8797 83.6393 58.9832C84.5161 59.3515 84.8381 59.2637 84.9634 58.3211C84.5785 57.3782 84.1368 56.9737 83.1979 56.335L82.9772 54.5695C81.8088 52.8113 79.837 51.5289 75.4739 49.0524C75.4745 47.5325 75.793 47.0205 77.4601 47.2869L80.329 50.8179C81.4488 51.2291 82.1702 51.3304 83.6393 51.2592C86.9176 55.2547 89.1906 57.5181 94.8941 61.6314C96.3934 65.0954 97.2956 67.065 95.1148 68.914L91.3632 69.1347L86.5081 66.9278L83.1979 66.7071C79.1188 64.7659 76.8467 63.7463 72.8257 62.0728C71.4391 62.1545 71.1017 62.3189 71.7223 62.9555C75.3338 64.5861 77.3146 65.5006 78.1221 67.1485H75.4739L68.8534 63.3969C68.2571 62.552 68.2386 62.19 69.0741 61.8521C70.4416 61.6966 70.1089 60.8557 69.2948 59.2039V54.1281C69.1799 53.3048 69.0151 52.8621 68.412 52.142C67.7741 51.7794 67.4407 51.8297 66.8673 52.142C66.4892 52.6163 66.3605 52.968 66.4259 53.9075C65.9857 54.564 65.5359 54.6082 64.6604 54.5695C63.5306 53.6954 62.9855 53.1253 62.2329 51.9213C62.5414 51.3101 62.7863 51.0301 63.557 50.8179C63.8662 50.0162 63.6673 49.7393 62.6743 49.4938L60.2467 50.5972C58.909 50.5137 58.6965 50.1286 58.9226 49.0524C59.8608 47.5754 60.5132 46.8786 62.0122 45.9628Z" fill="#FCFCFC"/>
<path d="M88.0529 79.0654C84.5232 81.2924 83.1574 81.9707 82.5358 81.493C83.1664 78.3128 84.0343 76.6917 87.6116 74.4311L97.763 71.1208C98.7851 69.58 99.4802 69.624 100.853 70.6794C103.099 73.4366 104.509 74.8301 107.473 76.8586L111.445 81.493C111.781 82.0929 111.977 82.5106 112.328 83.2584C113.721 83.9212 114.501 84.3335 115.859 85.9067C118.433 87.7677 119.135 88.6215 118.507 89.6583L115.859 91.8651C115.209 92.6915 114.258 92.9058 112.328 93.1892C109.767 96.8892 108.711 98.1621 107.473 99.1477C105.622 99.4651 104.666 99.0507 103.059 97.6029L101.735 96.2788C101.298 96.8087 101.223 97.2325 101.735 98.4857C103.102 100.062 103.555 100.925 103.722 102.458C102.12 102.048 101.316 101.905 99.0871 100.913C98.1472 100.407 97.8636 99.995 97.763 99.1477C99.5584 96.0503 100.385 95.1373 101.735 94.072C103.916 94.4968 105.322 93.352 108.135 88.9962C111.926 86.8063 112.659 85.7233 111.225 84.1412C110.276 85.2987 109.435 85.7234 107.473 86.1273C104.837 86.3746 103.918 86.8775 104.163 88.9962C99.8735 89.7986 98.6056 90.828 98.2044 93.6306L95.5562 96.7202L88.715 98.0443C86.7702 98.3047 85.893 98.2224 85.184 97.1616C85.0841 96.637 87.0706 96.3009 93.7907 95.6168C96.9312 91.0528 98.2846 88.351 103.059 84.3619L102.618 82.5964C99.9958 84.8554 98.0935 85.8253 94.2321 87.2308L92.2459 90.7617C89.348 91.6733 87.5649 91.8387 84.0806 91.4238C81.8657 90.2955 81.1089 89.6623 80.7704 88.5549C84.2335 86.489 86.1585 85.2829 88.715 80.6102C89.0287 79.7073 89.1219 79.2439 88.0529 79.0654Z" fill="#FCFCFC"/>
<rect x="110.342" y="230.394" width="3.97232" height="29.1303" fill="#F4F4F4"/>
<rect x="98.5942" y="233.414" width="3.97232" height="22.9168" transform="rotate(-30.6766 98.5942 233.414)" fill="#F4F4F4"/>
<rect x="131.919" y="239.572" width="3.97232" height="22.9168" transform="rotate(62.5452 131.919 239.572)" fill="#F4F4F4"/>
<rect x="89.8817" y="241.937" width="3.97232" height="22.9168" transform="rotate(-59.6394 89.8817 241.937)" fill="#F4F4F4"/>
<rect x="123.901" y="230.394" width="3.97232" height="22.9168" transform="rotate(33.5824 123.901 230.394)" fill="#F4F4F4"/>
<rect x="90.039" y="254.228" width="3.97232" height="45.4813" transform="rotate(-89.7581 90.039 254.228)" fill="#F4F4F4"/>
<circle cx="84.9633" cy="252.243" r="5.95847" fill="#F4F4F4"/>
<circle cx="88.4943" cy="238.12" r="5.95847" fill="#F4F4F4"/>
<circle cx="98.6457" cy="227.968" r="5.95847" fill="#F4F4F4"/>
<circle cx="112.328" cy="224.878" r="5.95847" fill="#F4F4F4"/>
<circle cx="127.335" cy="228.851" r="5.95847" fill="#F4F4F4"/>
<circle cx="136.603" cy="238.56" r="5.95847" fill="#F4F4F4"/>
<circle cx="139.252" cy="252.243" r="5.95847" fill="#F4F4F4"/>
</svg>
