<svg width="40" height="40" viewBox="0 0 40 40" fill="none" xmlns="http://www.w3.org/2000/svg">
<rect width="40" height="40" rx="7.08333" fill="#3374F7"/>
<path d="M11.1906 13.3462H6.66675C9.45602 22.3488 11.4709 26.8117 19.5596 28.9533C20.3216 29.1881 21.9888 28.631 22.0477 28.0485C22.0659 27.8685 22.0477 26.1636 22.0477 25.3342C21.9835 24.4917 22.0078 24.1788 22.2739 24.2033C23.927 24.3046 25.0355 25.4827 26.9984 27.569L27.0239 27.5961C27.7002 28.2852 28.0938 28.6006 28.8334 28.9533H31.7739C33.0823 28.6561 33.3014 28.2699 32.6786 27.1438C31.3542 25.2118 30.5357 24.1997 28.8334 22.6199C28.2584 22.0162 28.2048 21.7274 28.381 21.2628L32.2262 14.7033C32.4378 13.7457 32.3854 13.3626 31.5477 13.3462H29.2858C27.8506 13.2602 27.6696 13.6086 27.3791 14.2509C26.3122 16.5343 25.5829 17.8388 23.4048 20.3581C22.6539 20.9805 22.3131 21.1024 22.0477 20.3581V14.4771C22.0801 13.4996 21.8648 13.3725 21.3691 13.3462H17.7501C16.0032 13.3421 15.7266 13.415 15.9405 14.2509L17.0715 16.0604C17.1015 19.8565 17.119 22.2324 16.6191 22.1676C14.0764 20.358 13.1412 17.7822 11.1906 13.3462Z" fill="white"/>
</svg>
