<svg width="28" height="21" viewBox="0 0 28 21" fill="none" xmlns="http://www.w3.org/2000/svg">
<path d="M22.9091 13.2466V3.24308C22.9091 1.86759 21.7636 0.742188 20.3636 0.742188H2.54545C1.14545 0.742188 0 1.86759 0 3.24308V13.2466C0 14.6221 1.14545 15.7475 2.54545 15.7475H20.3636C21.7636 15.7475 22.9091 14.6221 22.9091 13.2466ZM20.3636 13.2466H2.54545V3.24308H20.3636V13.2466ZM11.4545 4.49352C9.34182 4.49352 7.63636 6.16912 7.63636 8.24485C7.63636 10.3206 9.34182 11.9962 11.4545 11.9962C13.5673 11.9962 15.2727 10.3206 15.2727 8.24485C15.2727 6.16912 13.5673 4.49352 11.4545 4.49352ZM28 4.49352V18.2484C28 19.6239 26.8545 20.7493 25.4545 20.7493H3.81818C3.81818 19.4989 3.81818 19.6239 3.81818 18.2484H25.4545V4.49352C26.8545 4.49352 26.7273 4.49352 28 4.49352Z" fill="#1B438B"/>
</svg>
