<svg width="43" height="31" viewBox="0 0 43 31" fill="none" xmlns="http://www.w3.org/2000/svg">
<path d="M8.4 30.2879C6.86667 30.2879 5.55833 29.7461 4.475 28.6624C3.39167 27.5786 2.85 26.2699 2.85 24.736H0V3.07828C0 2.27799 0.283333 1.59442 0.85 1.02755C1.41667 0.460681 2.1 0.177246 2.9 0.177246H30.8V8.03004H35.55L42.6 17.4834V24.736H39.35C39.35 26.2699 38.8083 27.5786 37.725 28.6624C36.6417 29.7461 35.3167 30.2879 33.75 30.2879C32.2167 30.2879 30.9167 29.7461 29.85 28.6624C28.7833 27.5786 28.25 26.2699 28.25 24.736H13.95C13.95 26.2699 13.4083 27.5786 12.325 28.6624C11.2417 29.7461 9.93333 30.2879 8.4 30.2879ZM8.4 27.9871C9.33333 27.9871 10.1167 27.6703 10.75 27.0368C11.3833 26.4032 11.7 25.6363 11.7 24.736C11.7 23.8357 11.3833 23.0604 10.75 22.4101C10.1167 21.7599 9.33333 21.4348 8.4 21.4348C7.5 21.4348 6.73333 21.7599 6.1 22.4101C5.46667 23.0604 5.15 23.8357 5.15 24.736C5.15 25.6363 5.46667 26.4032 6.1 27.0368C6.73333 27.6703 7.5 27.9871 8.4 27.9871ZM33.8 27.9871C34.7 27.9871 35.4667 27.6703 36.1 27.0368C36.7333 26.4032 37.05 25.6363 37.05 24.736C37.05 23.8357 36.7333 23.0604 36.1 22.4101C35.4667 21.7599 34.7 21.4348 33.8 21.4348C32.8667 21.4348 32.0833 21.7599 31.45 22.4101C30.8167 23.0604 30.5 23.8357 30.5 24.736C30.5 25.6363 30.8167 26.4032 31.45 27.0368C32.0833 27.6703 32.8667 27.9871 33.8 27.9871ZM30.8 18.2337H40.35L34.4 10.3309H30.8V18.2337Z" fill="#424345"/>
</svg>
