<svg width="26" height="33" viewBox="0 0 26 33" fill="none" xmlns="http://www.w3.org/2000/svg">
<path d="M8.45215 32.1886V10.2883C5.9923 9.85161 3.9901 8.82823 2.44554 7.21811C0.90099 5.60799 0.0858086 3.71132 0 1.52811H1.93069C2.0451 3.54758 2.92464 5.23275 4.56931 6.58361C6.21397 7.93448 8.15182 8.60991 10.3828 8.60991H14.6733C15.5886 8.60991 16.2679 8.69178 16.7112 8.85552C17.1546 9.01926 17.7195 9.38768 18.4059 9.96077L26 16.8379L24.5842 18.1888L16.604 10.8614V32.1886H14.6733V21.9957H10.3828V32.1886H8.45215ZM12.5281 5.78538C11.7272 5.78538 11.0336 5.51248 10.4472 4.96667C9.86084 4.42087 9.56766 3.7659 9.56766 3.00178C9.56766 2.21036 9.85369 1.54175 10.4257 0.995951C10.9978 0.450148 11.6986 0.177246 12.5281 0.177246C13.3575 0.177246 14.0583 0.450148 14.6304 0.995951C15.2024 1.54175 15.4884 2.19672 15.4884 2.96084C15.4884 3.75226 15.2024 4.42087 14.6304 4.96667C14.0583 5.51248 13.3575 5.78538 12.5281 5.78538Z" fill="#424345"/>
</svg>
