<svg width="765" height="862" viewBox="0 0 765 862" fill="none" xmlns="http://www.w3.org/2000/svg">
<path d="M236.992 861.726C126.639 816.692 72.7616 798.898 0 788.972C7.10008 765.992 15.1485 755.97 28.0932 737.106L83.5593 732.784L81.3983 701.089L190.89 686.683L715.297 615.369C717.32 624.412 716.414 632.278 715.297 645.623L622.373 664.352L738.347 658.589C750.625 678.541 756.509 689.417 765 708.293C757.524 735.251 752.784 749.788 743.39 773.844C642.172 794.27 589.738 813.667 502.797 860.284L490.551 857.403C496.006 833.618 497.717 819.544 486.949 786.81C451.294 717.271 420.297 699.084 346.483 701.81C293.71 713.519 272.962 732.491 248.517 783.928C238.909 812.949 239.898 830.316 244.195 861.726H236.992Z" fill="#F4F4F4"/>
<path d="M185.847 667.234C186.535 676.193 187.807 680.469 191.61 686.683L238.432 680.2C233.339 667.052 230.093 659.756 215.381 648.505L196.652 647.064C194.045 645.269 193.199 644.173 193.05 642.022H185.847C174.934 628.755 170.341 621.31 164.957 608.166C164.032 593.125 165.527 587.373 173.601 584.395C175.963 582.663 176.736 582.727 177.203 584.395C174.503 592.983 173.788 599.772 173.601 614.649C175.297 617.523 176.618 618.271 179.364 620.412C201.012 622.593 209.25 625.904 219.703 634.098L255.72 662.191C263.521 665.229 264.759 668.677 265.084 675.878L319.83 668.674C318.346 659.646 316.013 655.432 308.305 649.946C287.226 646.005 269.316 636.884 233.389 616.09C230.597 611.945 229.312 609.302 227.627 603.844V580.073C237.438 561.914 242.878 551.614 248.517 525.327C252.382 509.691 258.045 502.98 274.449 495.073C323.006 496.78 356.812 493.895 414.915 490.03C414.266 498.974 414.463 503.454 422.118 504.437C432.83 508.61 441.62 516.398 460.296 536.132C469.113 537.554 471.505 535.732 471.101 527.488C464.524 513.913 459.547 503.376 450.211 483.547C448.499 476.682 450.44 473.266 466.779 469.141C472.044 464.058 476.171 466.835 484.788 477.785C492.663 477.775 496.773 477.945 499.915 480.666C510.001 490.603 517.269 496.52 538.093 508.759L574.83 549.819C592.086 558.855 599.434 564.283 605.805 575.03C613.74 598.314 621.111 606.92 642.542 609.607C645.298 615.372 646.36 616.144 646.864 624.734L703.771 616.09C701.833 593.501 691.837 588.669 664.152 588.717C641.009 569.218 629.097 556.125 609.406 529.649C606.992 518.067 588.009 487.703 564.025 448.251C559.605 441.355 557.702 441.873 555.381 451.132C546.369 448.233 544.112 448.804 548.178 456.174C557.262 462.258 561.892 466.315 567.627 477.064C570.598 481.302 569.45 482.538 561.144 482.107C558.468 479.562 556.878 478.252 555.381 474.183C553.07 472.355 552.137 472.407 551.059 474.183C550.873 480.542 550.086 481.733 548.178 482.107C533.959 471.885 528.359 466.211 524.406 456.174C571.513 430.007 606.872 411.829 613.728 401.429L629.576 395.666C631.227 410.394 631.303 418.352 631.017 432.403C622.396 450.587 623.127 457.583 631.017 466.259C629.589 470.112 626.179 472.458 613.728 477.064C612.304 494.344 610.765 503.655 613.728 523.166L623.813 520.285C636.962 516.912 643.01 510.584 651.906 492.912C654.238 482.181 657.081 476.671 667.034 468.42C654.02 424.574 652.772 408.523 661.991 395.666C663.357 387.254 663.391 382.34 661.991 373.335C657.133 366.776 654.313 363.168 648.305 357.488C612.255 362.63 593.278 364.879 567.627 364.691C567.84 338.901 565.765 329.767 561.144 315.708C569.727 314.239 568.679 312.113 561.144 307.064L571.949 306.344C577.559 295.63 580.521 288.227 587.076 284.734C596.122 298.536 587.188 307.204 567.627 322.912C567.257 328.313 567.76 331.211 571.228 335.878C578.29 339.62 581.446 333.618 587.073 322.917L587.076 322.912C595.883 322.293 597.203 323.944 595 329.395L584.915 335.878C582.2 345.872 583.939 349.19 595 349.564C617.906 342.111 627.611 332.102 641.822 308.505C652.408 302.228 657.404 297.857 661.991 286.175C665.03 288.293 667.213 288.772 672.076 288.336C677.187 278.473 680.906 273.075 695.127 264.564L692.966 250.878C689.887 244.666 689.076 241.62 700.169 242.234C703.855 242.893 704.506 240.915 703.05 235.03L691.525 220.624C685.377 216.313 685.109 213.37 700.169 205.497C702.646 202.671 704.453 201.346 703.05 196.132C683.099 193.735 673.393 194.854 656.949 198.293C650.648 185.949 644.303 181.889 625.974 181.725C615.61 171.952 608.4 171.893 594.279 176.683C588.006 169.094 577.798 167.401 546.737 178.124C535.977 172.32 528.513 174.086 512.881 185.327C501.118 184.182 493.725 188.331 477.584 213.42H460.296L454.534 216.302C449.224 226.073 441.37 232.652 420.678 245.836C407.334 265.582 399.619 277.824 389.703 280.412C383.383 270.635 378.356 266.095 365.932 260.242L368.093 254.48C372.604 247.05 376.969 248.144 387.542 258.081C395.638 260.793 399.952 260.446 406.991 254.48C407.159 237.999 405.173 230.383 387.542 227.827C371.958 232.206 360.643 231.523 331.356 219.183C324.206 209.37 321.451 203.551 316.228 193.251C308.465 185.949 299.927 180.389 285.974 170.92C282.831 167.083 281.861 164.611 283.813 158.675C285.094 155.239 287.388 153.853 291.737 151.471C292.475 148.697 292.497 144.772 291.737 134.183C299.837 131.637 302.26 127.992 302.542 117.615C299.222 111.785 300.487 105.96 303.983 94.5643C303.44 89.2944 298.933 88.9568 286.695 90.9626L260.042 103.929C249.456 103.961 247.517 107.53 244.195 114.013C243.13 118.422 242.144 120.991 237.712 126.259C228.031 134.005 224.023 139.365 220.423 151.471C213.965 139.268 209.332 135.116 200.254 129.861L199.534 125.539C183.35 101.96 176.95 85.393 165.678 55.666V49.9033C160.498 41.2716 159.267 33.969 161.356 14.6067C153.966 8.29317 152.117 8.09769 150.55 10.2847C151.178 18.2674 150.711 22.6982 146.949 30.4542C144.314 26.0296 142.909 20.5815 140.466 5.96264C135.711 -1.74784 133.373 -1.7116 129.661 4.52197C126.526 14.0863 125.578 19.7632 125.339 30.4542C126.316 39.0779 128.219 44.2306 141.186 55.666C135.763 70.8362 134.213 86.5269 132.542 119.776C116.33 125.78 114.278 132.037 116.695 145.708L131.101 178.844V199.734C132.448 223.037 132.841 236.648 141.186 249.437C137.678 251.832 136.205 253.675 136.144 259.522C146.126 268.708 149.965 269.128 150.55 253.039C134.751 231.417 136.737 214.994 137.584 186.768C139.244 180.211 139.257 176.45 136.144 169.48C129.301 157.881 125.73 151.573 121.737 142.107C120.199 132.535 122.088 128.894 133.983 127.7C140.923 126.088 142.453 123.573 144.067 118.336C144.061 95.7469 145.436 89.647 150.55 90.9626C150.665 102.529 151.437 110.075 155.593 127.7C162.829 141.198 166.256 148.852 163.517 163.717C169.825 171.022 174.333 173.995 185.847 175.242C190.897 180.164 189.098 181.49 185.944 183.815L185.847 183.886C171.189 196.124 162.19 204.37 150.55 211.259C150.876 217.003 152.246 219.282 159.915 219.183C158.986 217.003 158.717 215.833 159.915 214.141L195.212 192.53C199.972 196.084 202.815 197.653 208.178 199.734L208.087 200.024C203.517 214.675 200.925 222.986 197.373 233.59C190.55 239.332 189.28 242.911 188.008 249.437C189.5 253.234 191.239 253.728 195.212 253.039C203.194 237.978 209.095 229.058 222.584 216.302C235.238 227.714 241.908 232.876 252.118 237.191C255.852 242.778 255.567 244.509 252.118 245.836C245.049 246.877 241.514 247.718 239.152 251.598C235.986 254.694 236.717 256.426 239.152 259.522C243.104 258.193 244.836 258.564 247.796 259.522C237.452 280.625 231.616 292.404 213.22 301.302L222.584 318.59C228.188 318.454 230.193 320.899 231.228 330.836C234.034 328.997 236.82 329.544 242.034 330.836C263.85 327.999 273.09 328.141 283.813 335.158C268.653 346.131 252.254 350.674 208.178 356.047C162.577 368.474 143.535 381.794 123.898 419.437V428.081C112.868 429.781 108.488 430.861 105.169 433.124C96.2561 432.786 91.3915 432.433 85.72 428.081C76.8725 424.462 72.5764 424.335 65.5505 425.92C34.224 445.063 26.5291 458.096 32.4149 485.708C24.4606 495.242 18.5391 500.991 27.3725 505.878L46.1013 503.717C51.7432 502.413 52.7173 503.453 51.1437 508.039C44.9991 512.044 43.7537 515.345 41.059 521.005C39.8499 526.187 39.2047 529.107 43.9403 537.573C48.3108 536.977 50.2547 537.341 54.0251 537.573C55.9238 533.794 57.2326 532.539 59.7878 531.09C69.919 534.96 76.8359 534.691 90.7624 531.09C91.7486 513.47 90.0881 506.992 83.559 500.835C84.2364 498.294 89.0421 498.175 97.2016 497.973L97.9657 497.954C102.002 487.428 102.381 478.233 102.288 460.496C110.483 451.433 114.785 449.964 121.737 456.174C126.47 477.921 135.577 494.869 159.915 531.09C157.13 543.096 145.657 555.489 119.576 580.793C116.091 589.708 117.605 594.391 126.779 600.242C145.725 621.238 154.693 634.91 157.754 653.547C160.592 654.582 163.114 656.62 170.72 665.073C178.967 660.336 182.674 659.865 185.847 667.234Z" fill="#F4F4F4"/>
<path d="M221.144 666.513C214.667 667.822 211.966 669.723 208.178 674.437H221.144C225.883 671.343 226.162 669.604 221.144 666.513Z" fill="#FCFCFC"/>
<path d="M303.983 660.75C300.664 665.062 297.942 667.022 291.017 669.395H306.144C311.172 665.77 310.231 663.567 303.983 660.75Z" fill="#FCFCFC"/>
<path d="M175.763 568.547C155.872 578.542 148.798 585.122 141.187 598.081C138.632 594.925 137.636 591.633 136.865 582.234C153.19 574.922 161.118 569.249 173.602 557.022C177.773 560.238 177.821 562.932 175.763 568.547Z" fill="#FCFCFC"/>
<path d="M178.644 541.174V536.852C181.832 539.486 183.857 542.042 188.009 549.098C187.945 556.864 187.344 559.465 185.848 562.784C184.555 553.315 183.494 548.237 178.644 541.174Z" fill="#FCFCFC"/>
<path d="M219.703 582.954C217.734 579.928 216.63 578.807 214.661 582.954C212.547 599.98 213.994 607.302 223.305 614.649C225.182 614.803 226.167 614.638 227.627 613.208C220.076 600.708 219.415 594.251 219.703 582.954Z" fill="#FCFCFC"/>
<path d="M193.771 508.759C181.959 503.924 176.393 500.467 168.559 492.911C179.261 496.525 185.677 498.46 198.813 501.556C205.531 503.821 208.75 505.455 213.941 508.759C214.342 489.31 208.19 481.396 190.169 470.581C162.038 458.773 160.867 454.625 156.313 446.81C180.219 453.103 191.641 456.705 205.297 463.378C206.18 459.719 206.08 457.673 205.297 454.013C201.164 440.214 196.827 435.092 188.008 427.361L198.813 433.844C213.768 436.736 219.675 443.856 225.466 466.979C226.081 477.261 228.08 482.764 234.11 492.191C238.521 487.137 240.558 483.116 243.474 474.183C244.419 466.58 244.223 462.106 243.474 454.013C234.567 438.369 231.47 429.202 225.466 412.954C237.316 426.985 243.953 434.824 255 445.369V461.937C251.07 467.348 250.576 470.33 250.678 475.623C252.972 486.311 253.168 491.038 252.839 498.674C243.55 510.808 239.435 519.579 236.991 544.056C234.001 549.113 232.425 550.17 229.788 549.098C225.896 532.898 226.188 518.829 224.746 520.284C220.322 530.177 217.797 536.407 213.941 537.572C210.189 525.249 205.378 519.043 193.771 508.759Z" fill="#FCFCFC"/>
<path d="M363.051 469.14C380.551 456.425 388.18 445.077 401.229 423.759C403.33 449.257 394.466 458.971 363.051 469.14Z" fill="#FCFCFC"/>
<path d="M459.576 322.911L444.449 312.106C465.327 310.016 467.911 317.73 472.495 331.413L472.542 331.556L459.576 322.911Z" fill="#FCFCFC"/>
<path d="M686.483 611.047C676.085 614.042 672.754 615.777 669.915 621.132L691.525 618.25C690.731 613.869 689.726 612.169 686.483 611.047Z" fill="#FCFCFC"/>
<path d="M564.746 508.039C563.013 500.498 559.347 495.229 552.5 485.708C562.153 492.27 567.7 495.605 578.432 499.395C588.916 508.468 594.76 513.549 597.881 521.725V531.81C611.087 546.168 628.917 566.474 652.627 590.878C656.282 594.255 658.883 595.414 664.153 596.64C670.06 598.016 673.372 598.202 679.28 596.64C679.095 599.217 678.275 600.294 675.678 601.683H655.508C644.951 593.9 640.009 593.177 632.458 596.64C628.367 573.061 612.25 558.328 581.314 531.81L579.873 523.886C575.46 518.47 573.126 515.508 564.746 508.039Z" fill="#FCFCFC"/>
<path d="M514.322 392.064C515.515 377.596 509.45 369.243 488.39 353.886C501.444 355.431 508.798 356.358 529.449 371.174C531.521 373.76 537.384 354.187 538.093 331.556C544.227 347.949 546.139 357.242 545.296 374.056L526.568 375.496C522.387 379.002 521.556 380.814 526.568 383.42H546.737C551.09 380.274 554.258 378.726 563.305 376.937C596.17 374.613 612.722 373.128 626.695 369.013C633.71 364.229 637.353 363.218 643.263 364.691C649.501 370.899 651.206 375.363 654.068 383.42C654.04 388.202 653.461 391.442 651.186 398.547C649.915 422.433 647.319 434.357 652.627 463.378C646.521 469.551 644.727 469.344 643.983 463.378C645.7 461.943 646.131 461.022 645.424 459.056C636.188 448.745 637.553 444.474 642.542 437.445C644.462 401.279 642.11 389.414 630.296 387.022C599.456 388.724 586.696 393.853 566.907 405.751C553.732 416.896 546.144 423.428 538.093 427.361C529.669 429.358 524.741 430.967 518.644 427.361C512.864 415.824 509.635 409.499 504.237 402.869H496.313C489.399 397.969 486.007 395.683 480.466 392.064C477.878 387.04 477.793 384.85 478.305 381.259C497.678 383.392 507.035 385.178 514.322 392.064Z" fill="#FCFCFC"/>
<path d="M403.39 281.853C402.136 285.766 401.963 287.846 403.39 291.217C417.687 288.936 425.49 287.353 436.525 280.412C455.586 284.344 464.684 286.289 476.864 289.056C480.578 285.132 484.854 283.735 494.153 281.853C495.139 280.028 487.079 279.532 467.5 278.972L459.576 274.65H453.093C449.771 271.943 448.234 270.353 445.89 267.446C439.374 266.143 437.119 264.154 435.085 258.802H464.619C467.578 256.373 467.445 255.24 463.178 253.76C458.345 252.09 456.426 249.647 453.093 245.116C453.92 242.807 454.707 242.085 458.136 244.395C462.433 245.45 465.815 244.86 472.542 242.955L488.39 251.599C489.736 251.99 490.496 252.022 491.992 246.556C496.571 227.088 500.995 219.654 512.161 213.421C513.467 210.561 514.346 208.868 516.483 205.497C517.684 203.967 518.493 204.114 520.085 205.497C519.592 211.743 519.881 213.556 520.805 215.582L514.322 224.226C513.408 228.48 514.157 229.634 516.483 230.709C520.352 223.443 523.564 220.25 533.051 217.743C533.637 214.572 536.958 209.694 550.339 193.251C552.751 191.394 553.084 193.942 552.5 202.616L545.297 214.861C544.009 219.814 545.225 221.379 549.619 222.786C551.414 215.336 554.751 211.281 574.831 204.777C578.824 202.61 581.064 201.39 586.356 193.251C590.62 193.184 590.24 196.473 579.153 214.861C577.231 219.014 577.75 220.057 582.034 219.184C604.161 212.011 615.183 208.123 620.212 202.616C625.436 205.192 625.626 208.006 619.492 216.303L600.763 226.387C598.755 230.368 599.236 231.588 601.483 232.87C621.246 224.664 632.02 221.236 648.305 226.387C650.721 227.813 645.732 230.458 624.534 238.633C619.831 241.205 618.394 243.119 615.89 246.557L617.331 251.599C615.462 254.74 613.984 256.226 610.127 258.082C608.506 261.341 608.306 263.094 610.127 266.006L617.331 258.082L619.492 260.964C616.733 268.919 617.095 273.516 620.212 281.853L617.331 287.616C617.171 290.222 618.07 290.547 620.212 290.497C624.155 288.615 626.363 286.859 630.297 281.853C631.686 273.341 632.612 269.704 634.619 266.006C635.822 265.108 636.66 265.325 638.22 266.006C637.965 271.56 639.244 275.416 643.983 283.294C644.505 288.172 644.103 290.788 639.661 294.819C638.097 293.841 637.287 292.627 636.059 288.336C634.372 287.238 633.425 286.799 631.737 288.336C630.806 290.868 630.41 292.288 631.737 294.819L617.331 309.947C614.939 315.913 617.056 316.31 622.373 315.709L636.059 307.065C637.483 305.609 637.878 304.44 638.22 302.023C649.218 296.11 654.782 289.688 663.432 271.769C658.215 267.373 656.1 264.31 653.347 258.082C652.308 250.214 652.767 245.799 654.068 237.913L657.67 224.226C659.544 222.517 660.86 222.773 663.432 224.226C661.698 232.286 659.748 236.254 661.992 246.557C666.784 250.547 669.464 254.242 674.237 262.404C675.695 264.145 676.352 264.278 677.119 262.404C677.512 258.802 675.752 255.407 670.636 247.997C669.754 245.19 669.714 243.601 670.636 240.794C673.448 238.947 675.026 239.083 677.839 240.794C679.79 249.475 681.469 253.03 685.042 258.082C686.822 258.855 687.232 258.089 686.483 253.76L682.881 238.633C683.45 236.792 684.108 235.891 687.203 235.031H692.966C693.885 233.962 694.168 233.206 692.966 230.709L676.398 214.141C678.245 210.266 680.003 208.157 687.203 204.777C687.777 202.309 687.198 201.511 684.322 201.175C677.24 202.884 672.622 204.738 664.153 208.379C659.149 210.648 656.17 211.29 649.746 208.379C646.409 200.584 644.044 196.595 636.78 191.811C631.213 192.665 627.923 192.707 621.653 191.811C611.438 181.146 607.561 182.49 601.483 188.209H596.441C586.407 182.097 580.429 177.736 575.551 185.327H569.068C562.389 182.423 559.377 183.996 554.661 189.649H549.619C536.052 181.313 529.891 183.42 520.805 196.133H507.119C482.739 216.149 472.8 227.502 463.178 224.226L455.254 232.15C445.853 246.911 438.997 252.1 422.839 253.76C423.012 257.686 423.012 259.736 422.839 263.124C414.352 269.851 410.224 274.039 403.39 281.853Z" fill="#FCFCFC"/>
<path d="M365.932 314.987C358.324 324.259 355.831 329.724 365.932 341.639C367.904 341.051 369.223 340.403 372.415 338.038C373.898 340.426 375.253 341.098 378.178 341.639C383.026 338.16 386.15 336.729 392.585 335.156C403.345 341.489 408.01 345.221 412.034 352.444C412.385 353.446 406.575 354.633 388.983 357.487C396.578 364.825 403.041 373.573 414.915 389.902C438.97 409.605 444.892 419.512 441.568 435.283L479.026 452.571L485.509 466.978C490.481 471.958 492.212 470.894 494.153 464.817C489.632 453.251 488.503 447.786 487.67 438.885L471.822 415.114C470.211 410.828 469.47 408.322 469.661 402.868C466.156 401.754 464.113 400.977 459.576 397.826L441.568 369.732C433.269 356.768 425.975 356.437 409.873 363.97C414.625 355.495 418.602 351.477 428.602 345.961C426.162 337.055 418.166 331.01 402.67 320.029C396.814 314.404 394.842 310.932 394.026 304.182C392.056 302.695 390.952 302.315 388.983 304.182C381.229 310.776 376.156 313.093 365.932 314.987Z" fill="#FCFCFC"/>
<path d="M177.924 134.904C174.378 136.84 173.204 136.584 171.441 134.904C158.311 98.1867 154.141 80.8963 153.432 57.107C155.142 52.5583 156.585 52.6918 159.915 57.107L168.559 75.8358C171.94 100.537 176.178 111.408 187.288 126.26C183.258 129.43 181.2 131.393 177.924 134.904Z" fill="#FCFCFC"/>
<path d="M177.924 149.31C177.096 151.423 176.913 152.651 177.924 155.073C187 144.606 193.85 141.302 208.178 138.505C205.548 135.23 203.561 133.797 198.093 132.742C189.255 138.995 184.592 142.567 177.924 149.31Z" fill="#FCFCFC"/>
<path d="M202.415 150.03H210.339C212.535 144.759 213.324 144.957 214.661 145.708C217.565 153.154 222.039 157.246 236.271 164.437C257.111 176.257 265.009 182.4 273.008 192.53C275.871 193.732 276.922 193.446 277.33 190.369C276.074 187.291 274.633 185.971 271.568 183.886L270.847 178.123C267.034 172.384 260.598 168.199 246.356 160.115C246.358 155.154 247.397 153.483 252.839 154.352L262.203 165.878C265.859 167.22 268.213 167.55 273.008 167.318C283.709 180.36 291.129 187.748 309.746 201.174C314.64 212.481 317.584 218.91 310.466 224.945L298.22 225.666L282.373 218.462L271.568 217.742C258.253 211.406 250.837 208.077 237.712 202.615C233.186 202.882 232.084 203.418 234.11 205.496C245.898 210.819 252.364 213.804 255 219.183H246.356L224.746 206.937C222.799 204.179 222.739 202.997 225.466 201.895C229.93 201.387 228.844 198.642 226.186 193.251V176.683C225.811 173.995 225.274 172.55 223.305 170.2C221.223 169.016 220.134 169.18 218.263 170.2C217.029 171.748 216.609 172.896 216.822 175.962C215.385 178.106 213.917 178.25 211.059 178.123C207.372 175.27 205.592 173.409 203.136 169.479C204.142 167.484 204.942 166.57 207.458 165.878C208.467 163.261 207.818 162.357 204.576 161.556L196.652 165.157C192.286 164.885 191.592 163.628 192.33 160.115C195.393 155.294 197.522 153.019 202.415 150.03Z" fill="#FCFCFC"/>
<path d="M287.415 258.081C275.894 265.35 271.436 267.564 269.407 266.005C271.465 255.624 274.298 250.333 285.975 242.954L319.11 232.149C322.446 227.119 324.715 227.263 329.195 230.708C336.526 239.708 341.13 244.256 350.805 250.878L363.771 266.005C364.866 267.963 365.508 269.326 366.652 271.768C371.199 273.931 373.743 275.277 378.178 280.412C386.581 286.486 388.871 289.273 386.822 292.657L378.178 299.861C376.054 302.558 372.951 303.258 366.652 304.183C358.294 316.26 354.845 320.415 350.805 323.632C344.761 324.668 341.642 323.315 336.398 318.59L332.076 314.267C330.65 315.997 330.402 317.38 332.076 321.471C336.536 326.616 338.015 329.434 338.559 334.437C333.333 333.099 330.708 332.631 323.432 329.395C320.364 327.743 319.438 326.398 319.11 323.632C324.97 313.522 327.667 310.542 332.076 307.064C339.194 308.451 343.783 304.714 352.966 290.496C365.339 283.348 367.733 279.813 363.051 274.649C359.954 278.427 357.208 279.813 350.805 281.132C342.202 281.939 339.2 283.581 340 290.496C325.999 293.115 321.86 296.475 320.551 305.623L311.907 315.708L289.576 320.03C283.228 320.88 280.365 320.611 278.051 317.149C277.725 315.437 284.209 314.34 306.144 312.106C316.395 297.209 320.813 288.39 336.398 275.369L334.958 269.606C326.398 276.98 320.189 280.146 307.585 284.734L301.102 296.259C291.643 299.235 285.822 299.775 274.449 298.42C267.219 294.737 264.749 292.67 263.644 289.056C274.948 282.312 281.231 278.376 289.576 263.123C290.6 260.176 290.904 258.664 287.415 258.081Z" fill="#FCFCFC"/>
<rect x="360.169" y="752.034" width="12.9661" height="95.0847" fill="#F4F4F4"/>
<rect x="321.823" y="761.894" width="12.9661" height="74.8031" transform="rotate(-30.6766 321.823 761.894)" fill="#F4F4F4"/>
<rect x="430.6" y="781.991" width="12.9661" height="74.8031" transform="rotate(62.5452 430.6 781.991)" fill="#F4F4F4"/>
<rect x="293.385" y="789.708" width="12.9661" height="74.8031" transform="rotate(-59.6394 293.385 789.708)" fill="#F4F4F4"/>
<rect x="404.427" y="752.034" width="12.9661" height="74.8031" transform="rotate(33.5824 404.427 752.034)" fill="#F4F4F4"/>
<rect x="293.898" y="829.83" width="12.9661" height="148.456" transform="rotate(-89.7581 293.898 829.83)" fill="#F4F4F4"/>
<circle cx="277.331" cy="823.347" r="19.4492" fill="#F4F4F4"/>
<circle cx="288.856" cy="777.246" r="19.4492" fill="#F4F4F4"/>
<circle cx="321.992" cy="744.11" r="19.4492" fill="#F4F4F4"/>
<circle cx="366.653" cy="734.025" r="19.4492" fill="#F4F4F4"/>
<circle cx="415.636" cy="746.991" r="19.4492" fill="#F4F4F4"/>
<circle cx="445.89" cy="778.686" r="19.4492" fill="#F4F4F4"/>
<circle cx="454.534" cy="823.347" r="19.4492" fill="#F4F4F4"/>
</svg>
