<svg width="114" height="56" viewBox="0 0 114 56" fill="none" xmlns="http://www.w3.org/2000/svg">
<path d="M53.0189 28C53.0189 41.8175 41.8175 53.0189 28 53.0189C14.1825 53.0189 2.98113 41.8175 2.98113 28C2.98113 14.1825 14.1825 2.98113 28 2.98113C41.8175 2.98113 53.0189 14.1825 53.0189 28Z" stroke="white" stroke-width="5.5"/>
<path d="M53 28C53 41.8071 41.8071 53 28 53C14.1929 53 3 41.8071 3 28C3 14.1929 14.1929 3 28 3C41.8071 3 53 14.1929 53 28Z" stroke="#393186" stroke-width="2"/>
<path d="M12.6785 32.5243L6.95935 38.2434C6.92397 38.2788 6.91381 38.3329 6.93328 38.379C9.5617 44.6025 13.6614 47.1144 20.547 50.0374C20.5992 50.0596 20.6606 50.0436 20.6946 49.9983L24.9648 44.3048C25.0104 44.2439 24.9894 44.1561 24.9221 44.1206C19.1456 41.0777 16.2735 37.9225 12.8708 32.5467C12.8285 32.4798 12.7344 32.4683 12.6785 32.5243Z" fill="white"/>
<path d="M12.1848 34.4897L6.96275 39.7164C6.92807 39.7511 6.91773 39.8043 6.93583 39.8499C9.3509 45.9339 12.5164 47.5006 18.8484 50.3531C18.9003 50.3765 18.9626 50.3619 18.9975 50.3169L23.0841 45.0628C23.1305 45.0031 23.1112 44.9152 23.0452 44.8784C17.7394 41.9164 15.5024 39.7552 12.3792 34.5155C12.338 34.4463 12.2417 34.4328 12.1848 34.4897Z" fill="#393186"/>
<path d="M30.0173 15.5466L30.0173 15.5466C29.1091 16.551 28.3188 17.3503 27.5942 18.083C27.2034 18.4783 26.8317 18.8542 26.4709 19.2325C25.454 20.299 24.5765 21.3344 23.7801 22.7281C23.457 23.2933 23.9382 23.9886 24.589 23.8679C25.2239 23.7501 25.7799 23.5958 26.3685 23.2967C26.9497 23.0013 27.5337 22.5795 28.2468 21.9608L28.2468 21.9608L28.2493 21.9587L32.998 17.798C33.2067 17.615 33.2998 17.3349 33.2465 17.0664C33.0764 16.2099 32.7296 15.6056 32.0733 15.358C31.7845 15.249 31.4923 15.2343 31.2466 15.2407C31.0803 15.2451 30.892 15.262 30.7231 15.2771C30.6554 15.2832 30.5908 15.2889 30.5321 15.2935C30.3334 15.309 30.1492 15.4007 30.0173 15.5466Z" fill="#393186" stroke="white" stroke-width="1.3"/>
<path d="M27.0558 36.9842L27.0388 36.997L27.0228 37.0109L22.5038 40.9105C22.312 41.0761 22.2141 41.3254 22.2403 41.5758C22.3212 42.3491 22.5329 42.9547 22.9867 43.3704C23.4267 43.7735 23.9899 43.8955 24.4892 43.9701C24.7318 44.0063 24.9719 43.9243 25.141 43.7607C28.138 40.8615 29.8422 39.1601 31.5682 36.5182C31.9205 35.9789 31.4937 35.2536 30.8344 35.3301C30.1929 35.4045 29.6278 35.5206 29.0203 35.779C28.4205 36.0342 27.8092 36.4155 27.0558 36.9842Z" fill="#393186" stroke="white" stroke-width="1.3"/>
<mask id="path-7-outside-1_4_2" maskUnits="userSpaceOnUse" x="12.0001" y="16.4256" width="25" height="20" fill="black">
<rect fill="white" x="12.0001" y="16.4256" width="25" height="20"/>
<path d="M15.1465 34.6633C14.246 34.2959 13.9316 33.9014 14.0122 32.9334C14.0146 32.9047 14.0277 32.877 14.0483 32.8566C17.7154 29.2239 20.5553 27.4656 26.0196 24.4747C29.4332 22.0625 31.1115 20.7353 33.1903 18.4986C33.2103 18.477 33.2385 18.4629 33.2678 18.4597C34.8067 18.2926 35.1501 18.7176 35.0261 20.2209C35.0236 20.2507 35.0098 20.2796 34.9882 20.3003C32.0596 23.1084 30.3291 24.4061 27.2199 26.2776C22.2699 29.1286 19.5844 30.8719 15.2737 34.6413C15.239 34.6717 15.1892 34.6808 15.1465 34.6633Z"/>
</mask>
<path d="M15.1465 34.6633C14.246 34.2959 13.9316 33.9014 14.0122 32.9334C14.0146 32.9047 14.0277 32.877 14.0483 32.8566C17.7154 29.2239 20.5553 27.4656 26.0196 24.4747C29.4332 22.0625 31.1115 20.7353 33.1903 18.4986C33.2103 18.477 33.2385 18.4629 33.2678 18.4597C34.8067 18.2926 35.1501 18.7176 35.0261 20.2209C35.0236 20.2507 35.0098 20.2796 34.9882 20.3003C32.0596 23.1084 30.3291 24.4061 27.2199 26.2776C22.2699 29.1286 19.5844 30.8719 15.2737 34.6413C15.239 34.6717 15.1892 34.6808 15.1465 34.6633Z" fill="#393186"/>
<path d="M14.0122 32.9334L15.3077 33.0413L15.3077 33.0413L14.0122 32.9334ZM15.1465 34.6633L15.6376 33.4597L15.6376 33.4597L15.1465 34.6633ZM15.2737 34.6413L14.418 33.6627L14.418 33.6627L15.2737 34.6413ZM27.2199 26.2776L27.8687 27.4041L27.8796 27.3979L27.8903 27.3914L27.2199 26.2776ZM34.9882 20.3003L34.0885 19.3619L34.0885 19.3619L34.9882 20.3003ZM14.0483 32.8566L14.9632 33.7802L14.9632 33.7802L14.0483 32.8566ZM26.0196 24.4747L26.6437 25.615L26.709 25.5793L26.7698 25.5364L26.0196 24.4747ZM33.1903 18.4986L34.1425 19.3836L34.1425 19.3836L33.1903 18.4986ZM35.0261 20.2209L33.7305 20.1141L33.7305 20.1141L35.0261 20.2209ZM33.2678 18.4597L33.4081 19.7521L33.4081 19.7521L33.2678 18.4597ZM12.7167 32.8256C12.6651 33.4449 12.7152 34.1369 13.1374 34.756C13.5399 35.3462 14.1407 35.657 14.6554 35.867L15.6376 33.4597C15.4571 33.386 15.3564 33.3309 15.3018 33.2942C15.2534 33.2618 15.2633 33.2587 15.2855 33.2912C15.3455 33.3792 15.2787 33.39 15.3077 33.0413L12.7167 32.8256ZM16.1295 35.6199C20.3569 31.9233 22.9662 30.2278 27.8687 27.4041L26.5711 25.1511C21.5736 28.0294 18.812 29.8204 14.418 33.6627L16.1295 35.6199ZM27.8903 27.3914C31.083 25.4697 32.8902 24.1129 35.8879 21.2386L34.0885 19.3619C31.2289 22.1038 29.5753 23.3426 26.5495 25.1638L27.8903 27.3914ZM14.9632 33.7802C18.5009 30.2756 21.2151 28.5865 26.6437 25.615L25.3954 23.3343C19.8955 26.3448 16.9298 28.1722 13.1334 31.9331L14.9632 33.7802ZM26.7698 25.5364C30.2104 23.1051 31.9734 21.7174 34.1425 19.3836L32.238 17.6136C30.2495 19.7531 28.656 21.0199 25.2694 23.413L26.7698 25.5364ZM36.3217 20.3278C36.3558 19.9144 36.3668 19.4867 36.3045 19.0876C36.2407 18.6789 36.0853 18.2057 35.7077 17.813C35.3241 17.414 34.8479 17.2393 34.4164 17.1696C34.0021 17.1027 33.5588 17.1205 33.1274 17.1673L33.4081 19.7521C33.7462 19.7154 33.923 19.7236 34.002 19.7364C34.0638 19.7464 33.9542 19.7406 33.8334 19.6148C33.7185 19.4953 33.7218 19.3999 33.7356 19.4884C33.7509 19.5866 33.7584 19.7757 33.7305 20.1141L36.3217 20.3278ZM34.1425 19.3836C33.9496 19.5912 33.6894 19.7216 33.4081 19.7521L33.1274 17.1673C32.7876 17.2042 32.4711 17.3628 32.238 17.6136L34.1425 19.3836ZM35.8879 21.2386C36.1374 20.9995 36.293 20.6752 36.3217 20.3277L33.7305 20.1141C33.7542 19.8261 33.8822 19.5598 34.0885 19.3619L35.8879 21.2386ZM14.6554 35.867C15.1691 36.0766 15.7373 35.9628 16.1295 35.6199L14.418 33.6627C14.7407 33.3805 15.2094 33.2849 15.6376 33.4597L14.6554 35.867ZM15.3077 33.0413C15.2839 33.3276 15.1579 33.5873 14.9632 33.7802L13.1334 31.9331C12.8976 32.1666 12.7453 32.4817 12.7167 32.8256L15.3077 33.0413Z" fill="white" mask="url(#path-7-outside-1_4_2)"/>
<path d="M29.9455 29.8854L29.9456 29.8855L29.9563 29.879C33.1171 27.9765 35.4797 26.0112 38.4276 23.185C38.6058 23.0143 38.6941 22.7654 38.6578 22.5159C38.5787 21.9714 38.4478 21.4152 38.0556 20.9838C37.6541 20.5422 37.0814 20.339 36.3826 20.2353C36.1306 20.1979 35.8763 20.2875 35.7034 20.4734L36.1785 20.9154L35.7034 20.4734C33.6652 22.6645 31.4382 24.589 28.076 26.9669C22.6188 29.9547 19.7203 31.7474 15.9996 35.4318L16.457 35.8937L15.9996 35.4318C15.8451 35.5848 15.7565 35.8027 15.7722 36.0327C15.8075 36.5477 15.9378 36.9769 16.2063 37.355C16.4621 37.7155 16.8108 37.981 17.1802 38.2262C17.4788 38.4243 17.862 38.3856 18.1166 38.1631C22.3775 34.4384 25.0245 32.7196 29.9455 29.8854Z" fill="#393186" stroke="white" stroke-width="1.3"/>
<mask id="path-10-outside-2_4_2" maskUnits="userSpaceOnUse" x="17.264" y="21.8738" width="26" height="20" fill="black">
<rect fill="white" x="17.264" y="21.8738" width="26" height="20"/>
<path d="M20.6622 40.4799C19.7441 40.0582 19.1936 39.9859 19.2713 39.0962C19.2737 39.0679 19.2867 39.0408 19.3068 39.0209C22.9785 35.3835 26.5581 32.914 32.0228 29.9229C35.4365 27.5107 37.1147 26.1835 39.1935 23.9468C39.2136 23.9252 39.2417 23.9111 39.271 23.9079C40.81 23.7408 41.1533 24.1658 41.0293 25.6691C41.0269 25.6989 41.013 25.7278 40.9915 25.7485C38.0628 28.5566 36.3324 29.8543 33.2232 31.7258C28.2747 34.5759 25.1097 36.6899 20.7968 40.4604C20.7599 40.4926 20.7067 40.5003 20.6622 40.4799Z"/>
</mask>
<path d="M20.6622 40.4799C19.7441 40.0582 19.1936 39.9859 19.2713 39.0962C19.2737 39.0679 19.2867 39.0408 19.3068 39.0209C22.9785 35.3835 26.5581 32.914 32.0228 29.9229C35.4365 27.5107 37.1147 26.1835 39.1935 23.9468C39.2136 23.9252 39.2417 23.9111 39.271 23.9079C40.81 23.7408 41.1533 24.1658 41.0293 25.6691C41.0269 25.6989 41.013 25.7278 40.9915 25.7485C38.0628 28.5566 36.3324 29.8543 33.2232 31.7258C28.2747 34.5759 25.1097 36.6899 20.7968 40.4604C20.7599 40.4926 20.7067 40.5003 20.6622 40.4799Z" fill="#393186"/>
<path d="M19.2713 39.0962L20.5663 39.2091L20.5663 39.2091L19.2713 39.0962ZM20.6622 40.4799L21.2048 39.2986L21.2048 39.2985L20.6622 40.4799ZM20.7968 40.4604L19.9412 39.4817L19.9412 39.4817L20.7968 40.4604ZM33.2232 31.7258L33.872 32.8523L33.8828 32.8461L33.8936 32.8396L33.2232 31.7258ZM40.9915 25.7485L40.0918 24.8101L40.0918 24.8101L40.9915 25.7485ZM19.3068 39.0209L20.2217 39.9444L20.2217 39.9444L19.3068 39.0209ZM32.0228 29.9229L32.647 31.0632L32.7123 31.0275L32.773 30.9846L32.0228 29.9229ZM39.1935 23.9468L40.1458 24.8318L40.1458 24.8318L39.1935 23.9468ZM41.0293 25.6691L39.7337 25.5623L39.7337 25.5623L41.0293 25.6691ZM39.271 23.9079L39.4113 25.2003L39.4114 25.2003L39.271 23.9079ZM17.9762 38.9832C17.9457 39.3326 17.9653 39.7226 18.1186 40.1085C18.2797 40.5137 18.5424 40.8004 18.8133 41.0035C19.0589 41.1877 19.3253 41.3127 19.5175 41.3984C19.7778 41.5143 19.8718 41.5474 20.1196 41.6612L21.2048 39.2985C21.0747 39.2388 20.9535 39.1863 20.848 39.1411C20.7375 39.0937 20.6545 39.0586 20.5757 39.0235C20.409 38.9492 20.3705 38.9214 20.3733 38.9235C20.4016 38.9447 20.4839 39.0201 20.5348 39.1483C20.5781 39.2572 20.558 39.3046 20.5663 39.2091L17.9762 38.9832ZM21.6525 41.4391C25.8859 37.738 28.977 35.6717 33.872 32.8523L32.5743 30.5993C27.5725 33.4801 24.3334 35.6418 19.9412 39.4817L21.6525 41.4391ZM33.8936 32.8396C37.0863 30.9179 38.8935 29.5611 41.8912 26.6868L40.0918 24.8101C37.2322 27.552 35.5785 28.7908 32.5527 30.612L33.8936 32.8396ZM20.2217 39.9444C23.7804 36.4191 27.2499 34.0174 32.647 31.0632L31.3986 28.7825C25.8664 31.8107 22.1767 34.348 18.3919 38.0973L20.2217 39.9444ZM32.773 30.9846C36.2137 28.5533 37.9767 27.1656 40.1458 24.8318L38.2413 23.0618C36.2528 25.2013 34.6592 26.4681 31.2726 28.8612L32.773 30.9846ZM42.3249 25.776C42.359 25.3626 42.3701 24.9349 42.3078 24.5358C42.244 24.1271 42.0885 23.6539 41.711 23.2612C41.3274 22.8622 40.8511 22.6875 40.4197 22.6178C40.0053 22.5509 39.5621 22.5687 39.1307 22.6155L39.4114 25.2003C39.7494 25.1636 39.9263 25.1718 40.0052 25.1846C40.0671 25.1946 39.9575 25.1888 39.8366 25.063C39.7217 24.9435 39.725 24.8481 39.7389 24.9366C39.7542 25.0348 39.7616 25.2239 39.7337 25.5623L42.3249 25.776ZM40.1458 24.8318C39.9528 25.0394 39.6926 25.1698 39.4113 25.2003L39.1307 22.6155C38.7909 22.6524 38.4744 22.811 38.2413 23.0618L40.1458 24.8318ZM41.8912 26.6868C42.1406 26.4477 42.2963 26.1235 42.3249 25.7759L39.7337 25.5623C39.7575 25.2743 39.8854 25.008 40.0918 24.8101L41.8912 26.6868ZM20.1195 41.6612C20.6292 41.8953 21.2299 41.8085 21.6525 41.4391L19.9412 39.4817C20.2899 39.1768 20.7842 39.1054 21.2048 39.2986L20.1195 41.6612ZM20.5663 39.2091C20.5414 39.4952 20.4148 39.7531 20.2217 39.9444L18.3919 38.0973C18.1586 38.3285 18.0061 38.6407 17.9762 38.9832L20.5663 39.2091Z" fill="white" mask="url(#path-10-outside-2_4_2)"/>
<path d="M34.513 16.8336C34.6961 16.649 34.7195 16.4115 34.7036 16.2424C34.6874 16.07 34.6262 15.8968 34.5502 15.7392C34.3963 15.4203 34.1355 15.0701 33.8125 14.7489C33.4895 14.4277 33.138 14.169 32.8184 14.0172C32.6606 13.9422 32.4872 13.8821 32.3149 13.867C32.146 13.8523 31.909 13.8774 31.7259 14.062C31.5428 14.2467 31.5193 14.4841 31.5353 14.6532C31.5515 14.8256 31.6127 14.9988 31.6887 15.1564C31.8425 15.4753 32.1034 15.8255 32.4264 16.1467C32.7494 16.4679 33.1009 16.7266 33.4205 16.8784C33.5783 16.9534 33.7517 17.0135 33.924 17.0286C34.0929 17.0433 34.3299 17.0182 34.513 16.8336Z" fill="#393186" stroke="white" stroke-width="0.9"/>
<path d="M43.2961 24.3887C43.4839 24.1517 43.4267 23.8748 43.3796 23.7332C43.3254 23.5703 43.2277 23.4067 43.1178 23.2558C42.8939 22.9488 42.5532 22.6055 42.1521 22.2867C41.7509 21.968 41.3396 21.7138 40.9901 21.5654C40.8184 21.4924 40.6371 21.4344 40.4663 21.4185C40.3179 21.4048 40.0356 21.412 39.8478 21.649C39.6601 21.886 39.7172 22.1629 39.7643 22.3045C39.8185 22.4674 39.9162 22.631 40.0262 22.7819C40.25 23.0889 40.5907 23.4322 40.9918 23.751C41.393 24.0697 41.8043 24.3239 42.1538 24.4723C42.3255 24.5453 42.5068 24.6034 42.6776 24.6192C42.826 24.6329 43.1083 24.6257 43.2961 24.3887Z" fill="#393186" stroke="white" stroke-width="0.9"/>
<path d="M39.8617 21.6546C40 21.5084 40.0295 21.3307 40.0267 21.2015C40.0239 21.0742 39.9902 20.9519 39.9512 20.8476C39.8726 20.637 39.7343 20.4005 39.566 20.1588C39.2252 19.6691 38.7036 19.0762 38.0837 18.4883C37.4638 17.9004 36.8442 17.4111 36.3374 17.097C36.0872 16.9419 35.8439 16.8164 35.6296 16.7492C35.5235 16.716 35.3996 16.6889 35.2726 16.693C35.1436 16.6972 34.968 16.7364 34.8298 16.8826C34.6915 17.0288 34.662 17.2065 34.6648 17.3357C34.6676 17.4629 34.7013 17.5853 34.7403 17.6896C34.8189 17.9001 34.9572 18.1367 35.1255 18.3784C35.4663 18.8681 35.9879 19.4609 36.6078 20.0488C37.2277 20.6367 37.8473 21.126 38.3541 21.4402C38.6043 21.5953 38.8476 21.7207 39.0619 21.7879C39.168 21.8212 39.2919 21.8483 39.4189 21.8442C39.5479 21.84 39.7235 21.8007 39.8617 21.6546Z" fill="#393186" stroke="white" stroke-width="0.9"/>
<circle cx="65.5" cy="30.5" r="4.5" stroke="white" stroke-width="4"/>
<path d="M62.7542 26.1154V22.1678H68.4661V22.965V23.465H68.9661H71H71.5V22.965V20V19.5H71H59H58.5V20V21.6678V22.1678H59H59.7203V30V30.4196L60.1335 30.4924L61.7606 30.7793L62.2927 30.8731L62.3451 30.3354L62.7519 26.1639L62.7542 26.1397V26.1154Z" fill="#393186" stroke="white"/>
<path d="M69.9492 30.385C69.9492 32.8619 67.9409 34.87 65.4633 34.87C62.9958 34.87 60.9937 32.8783 60.9772 30.4157L61.0273 29.7131C61.189 28.6354 61.7351 27.6815 62.5245 26.9964C63.3122 26.3128 64.3384 25.9 65.4633 25.9C67.9409 25.9 69.9492 27.9081 69.9492 30.385Z" stroke="#393186" stroke-width="1.8"/>
<rect x="59" y="22" width="1" height="8" fill="white"/>
<path d="M106.957 33.0282H106.891V32.8758L109.29 26.3364V35.0107V35.5107H109.79H112.999H113.499V35.0107V33.5282V33.0282H112.999H112.178V22.3534H112.999H113.499V21.8534V20.3709V19.8709H112.999H109.79H109.773L109.756 19.872C109.211 19.9088 108.787 20.0748 108.457 20.4369C108.162 20.7622 107.982 21.2097 107.809 21.6817L107.807 21.6885L107.805 21.6954L105.017 30.0659L100.81 19.9929L100.682 19.6855H100.349H96.5728H96.0728V20.1855V21.8534V22.3534H96.5728H97.2056V32.8429H96.5728H96.0728V33.3429V35.0107V35.5107H96.5728H99.5937H100.094V35.0107V26.054L103.852 35.2008L103.979 35.5107H104.314H106.957H107.457V35.0107V33.5282V33.0282H106.957Z" fill="#393186" stroke="white"/>
<path d="M72.2172 19.5H71.7172V20V23.3357V23.8357H72.2172H74.4829H74.9829V23.3357V22.3532H77.4531C78.8854 22.6612 80.0526 24.1856 80.3519 26.542H74.9636H74.4636V27.042V28.5245V29.0245H74.9636H80.3417C80.2221 29.9306 80.0503 30.5814 79.7767 31.1087C79.4626 31.7141 78.9921 32.1985 78.2099 32.7155C76.7383 33.3404 75.1643 33.0279 73.2401 31.8085L72.8187 31.5414L72.5507 31.9622L71.6066 33.4447L71.3656 33.8233L71.7159 34.1037C73.0345 35.159 74.62 35.6583 76.0225 35.8195C77.4067 35.9786 78.6951 35.8169 79.4235 35.4594C80.4928 34.9346 81.5015 33.8201 82.2383 32.4703C82.9784 31.1143 83.4769 29.4625 83.4794 27.7961C83.5625 26.1306 83.1657 24.2334 82.2708 22.6671C81.3703 21.0909 79.9402 19.8131 77.9581 19.5059L77.9201 19.5H77.8815H72.2172Z" fill="#393186" stroke="white"/>
<path d="M95.0626 19.6855H95.5626V20.1855V23.4811V23.9811H95.0626H92.7969H92.2969V23.4811V22.5164H89.826C88.287 22.843 87.0581 24.5525 86.8765 27.1716C86.8548 27.6385 86.8442 27.9048 86.876 28.5701C86.9968 29.7499 87.1779 30.5387 87.5019 31.1557C87.8153 31.7525 88.2852 32.2307 89.0677 32.7417C90.5416 33.3602 92.1178 33.0503 94.042 31.8455L94.4603 31.5836L94.7276 31.9984L95.6717 33.4631L95.9176 33.8446L95.5615 34.1261C94.243 35.1688 92.6581 35.6617 91.2566 35.8209C89.8732 35.978 88.586 35.8182 87.8584 35.4655C86.7954 34.9501 85.8072 33.91 85.0547 32.6016C84.2977 31.2854 83.7555 29.6581 83.6132 27.9159L83.6115 27.8956V27.8752C83.6115 26.2265 84.1092 24.3956 85.0558 22.8737C86.0039 21.3496 87.4277 20.0987 89.2929 19.6968L89.345 19.6855H89.3982H95.0626Z" fill="#393186" stroke="white"/>
</svg>
