<svg width="60" height="60" viewBox="0 0 60 60" fill="none" xmlns="http://www.w3.org/2000/svg">
<path d="M56.9434 30C56.9434 44.8804 44.8804 56.9434 30 56.9434C15.1196 56.9434 3.05661 44.8804 3.05661 30C3.05661 15.1196 15.1196 3.05659 30 3.05659C44.8804 3.05659 56.9434 15.1196 56.9434 30Z" stroke="white" stroke-width="5.5"/>
<path d="M57 30C57 44.9117 44.9117 57 30 57C15.0883 57 3 44.9117 3 30C3 15.0883 15.0883 3 30 3C44.9117 3 57 15.0883 57 30Z" stroke="#003CB0" stroke-width="2"/>
<path d="M13.5083 34.8639L7.33634 41.0359C7.30097 41.0712 7.29082 41.1254 7.31027 41.1715C10.1417 47.8801 14.559 50.5855 21.9806 53.7356C22.0328 53.7577 22.0942 53.7418 22.1282 53.6964L26.738 47.5501C26.7836 47.4892 26.7626 47.4014 26.6953 47.3659C20.4642 44.0854 17.3698 40.6849 13.7006 34.8863C13.6583 34.8195 13.5642 34.808 13.5083 34.8639Z" fill="white"/>
<path d="M12.9769 36.9803L7.34011 42.6221C7.30544 42.6568 7.2951 42.71 7.31319 42.7556C9.91521 49.3146 13.3256 51.0009 20.1513 54.0757C20.2032 54.0991 20.2655 54.0844 20.3005 54.0395L24.7127 48.3666C24.7592 48.3069 24.7399 48.219 24.6738 48.1821C18.9493 44.9876 16.5399 42.6598 13.1713 37.0061C13.1301 36.937 13.0338 36.9233 12.9769 36.9803Z" fill="#003CB0"/>
<path d="M30.2331 23.4585L30.2331 23.4585C29.4628 24.1267 28.835 24.5793 28.2112 24.895C27.58 25.2144 26.9831 25.3784 26.2973 25.5046L26.1797 24.8653L26.2973 25.5046C25.6467 25.6243 25.1671 24.9294 25.4889 24.3649C26.345 22.8626 27.2882 21.748 28.384 20.5984C28.7731 20.1901 29.1748 19.784 29.5975 19.3565C30.3789 18.5662 31.2324 17.7031 32.2121 16.6194M30.2331 23.4585L32.2121 16.6194M30.2331 23.4585L30.2355 23.4564M30.2331 23.4585L30.2355 23.4564M32.2121 16.6194C32.3441 16.4734 32.5284 16.3817 32.7272 16.3662M32.2121 16.6194L32.7272 16.3662M30.2355 23.4564L35.3535 18.972C35.5628 18.7887 35.655 18.5085 35.6022 18.241C35.4208 17.3225 35.0535 16.6904 34.3687 16.4322M30.2355 23.4564L34.3687 16.4322M34.3687 16.4322C34.0659 16.318 33.758 16.3022 33.4956 16.3093M34.3687 16.4322L33.4956 16.3093M33.4956 16.3093C33.3191 16.314 33.1195 16.3319 32.9386 16.3481M33.4956 16.3093L32.9386 16.3481M32.9386 16.3481C32.864 16.3548 32.7925 16.3612 32.7272 16.3662M32.9386 16.3481L32.7272 16.3662" fill="#003CB0" stroke="white" stroke-width="1.3"/>
<path d="M28.9963 39.728L29.0133 39.7153C29.827 39.1009 30.4841 38.692 31.1279 38.4194C31.7792 38.1436 32.3858 38.0205 33.0786 37.9413C33.7369 37.8659 34.1635 38.5902 33.8116 39.1295C31.952 41.9798 30.1191 43.8099 26.8829 46.9404M28.9963 39.728L26.8829 46.9404M28.9963 39.728L28.9803 39.7419M28.9963 39.728L28.9803 39.7419M26.8829 46.9404C26.7137 47.1042 26.4736 47.1859 26.2315 47.1498M26.8829 46.9404L26.2315 47.1498M28.9803 39.7419L24.11 43.9447C23.9178 44.1106 23.8205 44.3598 23.8464 44.6095C23.9326 45.44 24.1583 46.0797 24.6354 46.5164M28.9803 39.7419L24.6354 46.5164M24.6354 46.5164C25.0984 46.9403 25.6933 47.0697 26.2315 47.1498M24.6354 46.5164L26.2315 47.1498" fill="#003CB0" stroke="white" stroke-width="1.3"/>
<path d="M29.4844 28.7085L29.4843 28.7084C24.1756 31.7659 21.3215 33.6196 16.7183 37.6453C16.5045 37.8323 16.1955 37.893 15.9181 37.7801C15.3989 37.5688 14.9212 37.3034 14.6144 36.8541C14.2976 36.3902 14.2391 35.8459 14.2888 35.2551L29.4844 28.7085ZM29.4844 28.7085L29.4951 28.702L29.4844 28.7085ZM35.5919 19.7651L35.1158 19.3226C35.2425 19.1863 35.4148 19.1001 35.599 19.0801L35.6694 19.7262L35.599 19.0801C36.0377 19.0322 36.4389 19.0204 36.7889 19.0767C37.1475 19.1344 37.492 19.2704 37.76 19.5491C38.0249 19.8248 38.1484 20.1709 38.2025 20.5192C38.2559 20.8628 38.2492 21.2553 38.214 21.6798C38.214 21.6798 38.214 21.6798 38.214 21.6798L37.5662 21.6261L35.5919 19.7651ZM35.5919 19.7651L35.1158 19.3226C32.9272 21.6778 31.1659 23.0758 27.5225 25.6512M35.5919 19.7651L27.5225 25.6512M27.5225 25.6512C21.64 28.8719 18.5228 30.8003 14.5151 34.7709L27.5225 25.6512Z" fill="#003CB0" stroke="white" stroke-width="1.3"/>
<path d="M32.0702 31.9871L32.0703 31.9872L32.081 31.9807C35.4819 29.9337 38.0239 27.8191 41.1987 24.7752C41.377 24.6042 41.465 24.3554 41.4289 24.1064C41.344 23.5197 41.2048 22.9319 40.7924 22.4781C40.3705 22.0138 39.7656 21.7975 39.0147 21.6867L38.9198 22.3297L39.0147 21.6867C38.7635 21.6496 38.5091 21.7386 38.3358 21.9249C36.1366 24.2896 33.7345 26.3655 30.1083 28.9299C24.2296 32.1485 21.1126 34.0766 17.1086 38.0421L17.1086 38.0421C16.9538 38.1954 16.8658 38.4131 16.8812 38.6422C16.9182 39.1927 17.0567 39.6474 17.3407 40.047C17.612 40.4287 17.9832 40.7112 18.382 40.9754C18.6808 41.1734 19.0638 41.1342 19.318 40.912C23.9131 36.8947 26.7668 35.0416 32.0702 31.9871Z" fill="#003CB0" stroke="white" stroke-width="1.3"/>
<path d="M35.9493 34.5757L35.9494 34.5758L35.9601 34.5693C39.3512 32.5282 41.2533 31.1009 44.4433 28.042C44.5789 27.9119 44.6635 27.7354 44.6791 27.5471C44.7142 27.1226 44.721 26.7301 44.6676 26.3865C44.6134 26.0382 44.49 25.6921 44.225 25.4164C43.9571 25.1377 43.6126 25.0017 43.254 24.944C42.9039 24.8877 42.5027 24.8995 42.0641 24.9473C41.8799 24.9674 41.7075 25.0536 41.5808 25.1899L42.057 25.6324L41.5808 25.1899C39.3922 27.5451 37.6309 28.9431 33.9875 31.5185C28.0857 34.7509 24.1824 37.4421 20.1782 41.4093L20.6138 41.8489L20.1782 41.4093C20.0512 41.5351 19.969 41.7047 19.9527 41.8889C19.9257 42.193 19.9465 42.4879 20.055 42.7617C20.1674 43.0452 20.3514 43.25 20.5575 43.4044C20.7509 43.5493 20.9728 43.656 21.1731 43.7452C21.2695 43.7881 21.3554 43.8248 21.4412 43.8614C21.5619 43.9129 21.6824 43.9643 21.8316 44.0329L22.1033 43.4424L21.8317 44.033C22.1087 44.1604 22.4359 44.1134 22.6659 43.9123C27.2732 39.8839 30.6452 37.6306 35.9493 34.5757Z" fill="#003CB0" stroke="white" stroke-width="1.3"/>
<path d="M36.9895 17.9502C37.1765 17.7616 37.2015 17.5179 37.1849 17.3412C37.1679 17.1611 37.1037 16.9788 37.0229 16.8112C36.8593 16.4721 36.5811 16.0981 36.2353 15.7542C35.8894 15.4103 35.514 15.1343 35.1743 14.9729C35.0063 14.8931 34.8238 14.8301 34.6438 14.8144C34.4672 14.799 34.2241 14.8257 34.037 15.0143C33.85 15.2029 33.825 15.4466 33.8416 15.6233C33.8586 15.8034 33.9228 15.9857 34.0036 16.1533C34.1672 16.4924 34.4454 16.8664 34.7912 17.2103C35.1371 17.5542 35.5125 17.8302 35.8522 17.9916C36.0202 18.0714 36.2027 18.1344 36.3827 18.1501C36.5593 18.1655 36.8024 18.1388 36.9895 17.9502Z" fill="#003CB0" stroke="white" stroke-width="0.9"/>
<path d="M46.4456 26.0894C46.6366 25.8484 46.5795 25.5653 46.5299 25.416C46.4731 25.2453 46.3701 25.0724 46.2527 24.9113C46.014 24.5838 45.6495 24.2163 45.2192 23.8744C44.7889 23.5325 44.3486 23.2607 43.9758 23.1023C43.7925 23.0244 43.6009 22.9634 43.422 22.9468C43.2655 22.9323 42.9773 22.941 42.7863 23.182C42.5953 23.423 42.6524 23.7061 42.702 23.8554C42.7588 24.0261 42.8618 24.199 42.9792 24.3601C43.2179 24.6876 43.5824 25.0551 44.0127 25.397C44.443 25.7389 44.8833 26.0108 45.2561 26.1691C45.4394 26.247 45.631 26.3081 45.8099 26.3246C45.9664 26.3391 46.2546 26.3304 46.4456 26.0894Z" fill="#003CB0" stroke="white" stroke-width="0.9"/>
<path d="M42.749 23.1426C42.8896 22.9941 42.9202 22.8129 42.9172 22.6793C42.9144 22.5476 42.8794 22.42 42.8381 22.3095C42.7549 22.0867 42.6078 21.8347 42.4273 21.5754C42.062 21.0505 41.502 20.4138 40.8356 19.7818C40.1692 19.1498 39.5038 18.6245 38.9606 18.2877C38.6921 18.1213 38.4329 17.988 38.2062 17.9169C38.0938 17.8816 37.9646 17.8536 37.8331 17.8578C37.6998 17.8622 37.5208 17.9026 37.3803 18.0512C37.2397 18.1998 37.2091 18.381 37.212 18.5146C37.2149 18.6462 37.2499 18.7739 37.2912 18.8843C37.3744 19.1072 37.5215 19.3591 37.702 19.6185C38.0673 20.1433 38.6273 20.7801 39.2937 21.4121C39.9601 22.044 40.6255 22.5694 41.1687 22.9061C41.4372 23.0725 41.6964 23.2059 41.9231 23.277C42.0355 23.3122 42.1647 23.3403 42.2962 23.336C42.4295 23.3317 42.6085 23.2912 42.749 23.1426Z" fill="#003CB0" stroke="white" stroke-width="0.9"/>
</svg>
