<svg width="155" height="56" viewBox="0 0 155 56" fill="none" xmlns="http://www.w3.org/2000/svg">
<path d="M66.7754 44.5059C66.3652 44.5059 65.998 44.5801 65.6738 44.7285C65.3535 44.877 65.082 45.0918 64.8594 45.373C64.6367 45.6504 64.4668 45.9883 64.3496 46.3867C64.2324 46.7812 64.1738 47.2266 64.1738 47.7227C64.1738 48.3867 64.2676 48.959 64.4551 49.4395C64.6426 49.916 64.9277 50.2832 65.3105 50.541C65.6934 50.7949 66.1777 50.9219 66.7637 50.9219C67.127 50.9219 67.4805 50.8867 67.8242 50.8164C68.168 50.7461 68.5234 50.6504 68.8906 50.5293V51.7246C68.543 51.8613 68.1914 51.9609 67.8359 52.0234C67.4805 52.0859 67.0703 52.1172 66.6055 52.1172C65.7305 52.1172 65.0039 51.9355 64.4258 51.5723C63.8516 51.209 63.4219 50.6973 63.1367 50.0371C62.8555 49.377 62.7148 48.6035 62.7148 47.7168C62.7148 47.0684 62.8047 46.4746 62.9844 45.9355C63.1641 45.3965 63.4258 44.9316 63.7695 44.541C64.1133 44.1465 64.5371 43.8438 65.041 43.6328C65.5488 43.418 66.1289 43.3105 66.7812 43.3105C67.2109 43.3105 67.6328 43.3594 68.0469 43.457C68.4648 43.5508 68.8516 43.6855 69.207 43.8613L68.7148 45.0215C68.418 44.8809 68.1074 44.7598 67.7832 44.6582C67.459 44.5566 67.123 44.5059 66.7754 44.5059ZM74.8498 45.5137V48.1211H77.885V45.5137H79.2678V52H77.885V49.1992H74.8498V52H73.467V45.5137H74.8498ZM83.6595 45.3906C84.4798 45.3906 85.099 45.5723 85.517 45.9355C85.9388 46.2988 86.1498 46.8652 86.1498 47.6348V52H85.1712L84.9076 51.0801H84.8607C84.6771 51.3145 84.4877 51.5078 84.2923 51.6602C84.097 51.8125 83.8705 51.9258 83.6127 52C83.3587 52.0781 83.0482 52.1172 82.681 52.1172C82.2943 52.1172 81.9486 52.0469 81.6439 51.9062C81.3392 51.7617 81.099 51.543 80.9232 51.25C80.7474 50.957 80.6595 50.5859 80.6595 50.1367C80.6595 49.4688 80.9076 48.9668 81.4037 48.6309C81.9037 48.2949 82.6576 48.1094 83.6654 48.0742L84.7904 48.0332V47.6934C84.7904 47.2441 84.6849 46.9238 84.474 46.7324C84.267 46.541 83.974 46.4453 83.5951 46.4453C83.2709 46.4453 82.9564 46.4922 82.6517 46.5859C82.347 46.6797 82.0502 46.7949 81.7611 46.9316L81.3158 45.959C81.6322 45.791 81.9916 45.6543 82.3939 45.5488C82.8002 45.4434 83.222 45.3906 83.6595 45.3906ZM84.7845 48.9004L83.9466 48.9297C83.2591 48.9531 82.7767 49.0703 82.4994 49.2812C82.222 49.4922 82.0834 49.7812 82.0834 50.1484C82.0834 50.4688 82.1791 50.7031 82.3705 50.8516C82.5619 50.9961 82.8138 51.0684 83.1263 51.0684C83.6029 51.0684 83.9974 50.9336 84.3099 50.6641C84.6263 50.3906 84.7845 49.9902 84.7845 49.4629V48.9004ZM95.4751 45.5137V52H94.1977V48.2969C94.1977 48.0547 94.2036 47.8125 94.2153 47.5703C94.227 47.3281 94.2427 47.0977 94.2622 46.8789H94.227L92.2524 52H91.1684L89.2114 46.873H89.1704C89.1899 47.0957 89.2036 47.3262 89.2114 47.5645C89.2231 47.8027 89.229 48.0605 89.229 48.3379V52H87.9516V45.5137H89.8735L91.7251 50.3594L93.6059 45.5137H95.4751ZM98.6305 45.5137V48.8242C98.6305 48.9297 98.6266 49.0645 98.6188 49.2285C98.6148 49.3887 98.607 49.5566 98.5953 49.7324C98.5836 49.9043 98.5719 50.0625 98.5602 50.207C98.5484 50.3516 98.5387 50.459 98.5309 50.5293L101.795 45.5137H103.47V52H102.152V48.7246C102.152 48.5527 102.156 48.3535 102.164 48.127C102.175 47.9004 102.187 47.6816 102.199 47.4707C102.214 47.2598 102.224 47.0996 102.228 46.9902L98.9762 52H97.3063V45.5137H98.6305ZM110.941 52.1172C110.328 52.1172 109.797 51.998 109.347 51.7598C108.898 51.5215 108.553 51.1562 108.31 50.6641C108.068 50.1719 107.947 49.5469 107.947 48.7891C107.947 48 108.08 47.3555 108.346 46.8555C108.611 46.3555 108.978 45.9863 109.447 45.748C109.92 45.5098 110.461 45.3906 111.07 45.3906C111.457 45.3906 111.806 45.4297 112.119 45.5078C112.435 45.582 112.703 45.6738 112.922 45.7832L112.512 46.8848C112.273 46.7871 112.029 46.7051 111.779 46.6387C111.529 46.5723 111.289 46.5391 111.058 46.5391C110.68 46.5391 110.363 46.623 110.109 46.791C109.859 46.959 109.672 47.209 109.547 47.541C109.426 47.873 109.365 48.2852 109.365 48.7773C109.365 49.2539 109.428 49.6562 109.553 49.9844C109.678 50.3086 109.863 50.5547 110.109 50.7227C110.355 50.8867 110.658 50.9688 111.017 50.9688C111.373 50.9688 111.691 50.9258 111.972 50.8398C112.254 50.7539 112.519 50.6426 112.769 50.5059V51.7012C112.523 51.8418 112.26 51.9453 111.978 52.0117C111.697 52.082 111.351 52.1172 110.941 52.1172ZM119.628 47.1777C119.628 47.5527 119.513 47.8594 119.282 48.0977C119.056 48.332 118.743 48.4863 118.345 48.5605V48.6074C118.77 48.6621 119.126 48.8125 119.411 49.0586C119.696 49.3047 119.839 49.6465 119.839 50.084C119.839 50.4551 119.745 50.7852 119.558 51.0742C119.374 51.3594 119.081 51.5859 118.679 51.7539C118.28 51.918 117.759 52 117.114 52H114.173V45.5137H117.103C117.587 45.5137 118.019 45.5664 118.397 45.6719C118.78 45.7773 119.081 45.9512 119.3 46.1934C119.519 46.4355 119.628 46.7637 119.628 47.1777ZM118.403 50.0371C118.403 49.7168 118.28 49.4863 118.034 49.3457C117.792 49.2051 117.436 49.1348 116.968 49.1348H115.556V50.9863H116.997C117.435 50.9863 117.778 50.9141 118.028 50.7695C118.278 50.6211 118.403 50.377 118.403 50.0371ZM118.228 47.3008C118.228 47.0469 118.132 46.8594 117.94 46.7383C117.749 46.6133 117.448 46.5508 117.038 46.5508H115.556V48.1211H116.851C117.304 48.1211 117.645 48.0566 117.876 47.9277C118.11 47.7949 118.228 47.5859 118.228 47.3008ZM123.856 45.3906C124.434 45.3906 124.93 45.5098 125.344 45.748C125.758 45.9863 126.076 46.3242 126.299 46.7617C126.522 47.1992 126.633 47.7227 126.633 48.332V49.0703H122.303C122.318 49.6992 122.486 50.1836 122.807 50.5234C123.131 50.8633 123.584 51.0332 124.166 51.0332C124.58 51.0332 124.951 50.9941 125.279 50.916C125.611 50.834 125.953 50.7148 126.305 50.5586V51.6777C125.981 51.8301 125.65 51.9414 125.315 52.0117C124.979 52.082 124.576 52.1172 124.107 52.1172C123.471 52.1172 122.91 51.9941 122.426 51.748C121.945 51.498 121.568 51.127 121.295 50.6348C121.025 50.1426 120.891 49.5312 120.891 48.8008C120.891 48.0742 121.014 47.457 121.26 46.9492C121.506 46.4414 121.852 46.0547 122.297 45.7891C122.742 45.5234 123.262 45.3906 123.856 45.3906ZM123.856 46.4277C123.422 46.4277 123.07 46.5684 122.801 46.8496C122.535 47.1309 122.379 47.543 122.332 48.0859H125.285C125.281 47.7617 125.227 47.4746 125.121 47.2246C125.02 46.9746 124.863 46.7793 124.652 46.6387C124.445 46.498 124.18 46.4277 123.856 46.4277ZM132.964 46.5977H130.831V52H129.46V46.5977H127.339V45.5137H132.964V46.5977ZM139.436 52H138.047V46.5918H136.248C136.17 47.5762 136.073 48.418 135.955 49.1172C135.838 49.8164 135.692 50.3867 135.516 50.8281C135.34 51.2656 135.123 51.5859 134.866 51.7891C134.608 51.9922 134.297 52.0938 133.934 52.0938C133.774 52.0938 133.629 52.082 133.5 52.0586C133.371 52.0391 133.256 52.0078 133.155 51.9648V50.8809C133.221 50.9043 133.293 50.9238 133.371 50.9395C133.45 50.9551 133.53 50.9629 133.612 50.9629C133.756 50.9629 133.889 50.9043 134.01 50.7871C134.135 50.666 134.25 50.4766 134.356 50.2188C134.461 49.9609 134.557 49.6211 134.643 49.1992C134.729 48.7734 134.807 48.2578 134.877 47.6523C134.948 47.043 135.01 46.3301 135.065 45.5137H139.436V52ZM143.874 45.3906C144.453 45.3906 144.949 45.5098 145.363 45.748C145.777 45.9863 146.095 46.3242 146.318 46.7617C146.54 47.1992 146.652 47.7227 146.652 48.332V49.0703H142.322C142.337 49.6992 142.505 50.1836 142.826 50.5234C143.15 50.8633 143.603 51.0332 144.185 51.0332C144.599 51.0332 144.97 50.9941 145.298 50.916C145.63 50.834 145.972 50.7148 146.324 50.5586V51.6777C145.999 51.8301 145.669 51.9414 145.333 52.0117C144.997 52.082 144.595 52.1172 144.126 52.1172C143.49 52.1172 142.929 51.9941 142.445 51.748C141.964 51.498 141.587 51.127 141.314 50.6348C141.044 50.1426 140.91 49.5312 140.91 48.8008C140.91 48.0742 141.033 47.457 141.279 46.9492C141.525 46.4414 141.871 46.0547 142.316 45.7891C142.761 45.5234 143.281 45.3906 143.874 45.3906ZM143.874 46.4277C143.441 46.4277 143.089 46.5684 142.82 46.8496C142.554 47.1309 142.398 47.543 142.351 48.0859H145.304C145.3 47.7617 145.246 47.4746 145.14 47.2246C145.039 46.9746 144.882 46.7793 144.671 46.6387C144.464 46.498 144.199 46.4277 143.874 46.4277ZM150.669 45.3906C151.247 45.3906 151.743 45.5098 152.157 45.748C152.571 45.9863 152.889 46.3242 153.112 46.7617C153.335 47.1992 153.446 47.7227 153.446 48.332V49.0703H149.116C149.131 49.6992 149.299 50.1836 149.62 50.5234C149.944 50.8633 150.397 51.0332 150.979 51.0332C151.393 51.0332 151.764 50.9941 152.092 50.916C152.424 50.834 152.766 50.7148 153.118 50.5586V51.6777C152.794 51.8301 152.463 51.9414 152.128 52.0117C151.792 52.082 151.389 52.1172 150.92 52.1172C150.284 52.1172 149.723 51.9941 149.239 51.748C148.758 51.498 148.381 51.127 148.108 50.6348C147.838 50.1426 147.704 49.5312 147.704 48.8008C147.704 48.0742 147.827 47.457 148.073 46.9492C148.319 46.4414 148.665 46.0547 149.11 45.7891C149.555 45.5234 150.075 45.3906 150.669 45.3906ZM150.669 46.4277C150.235 46.4277 149.883 46.5684 149.614 46.8496C149.348 47.1309 149.192 47.543 149.145 48.0859H152.098C152.094 47.7617 152.04 47.4746 151.934 47.2246C151.833 46.9746 151.676 46.7793 151.465 46.6387C151.258 46.498 150.993 46.4277 150.669 46.4277Z" fill="#F4B943"/>
<path d="M62.7144 36V14.16H80.3424V18.1848H67.7376V22.6776H73.7904C76.432 22.6776 78.4392 23.2288 79.812 24.3312C81.2056 25.4336 81.9024 27.0352 81.9024 29.136C81.9024 31.2992 81.1328 32.984 79.5936 34.1904C78.0544 35.3968 75.8808 36 73.0728 36H62.7144ZM67.7376 32.256H72.792C74.0816 32.256 75.0696 32.0064 75.756 31.5072C76.4424 30.9872 76.7856 30.2384 76.7856 29.2608C76.7856 27.3472 75.4544 26.3904 72.792 26.3904H67.7376V32.256ZM89.8672 26.8896V23.0208H100.662V26.8896H89.8672ZM92.7376 13.7856C94.3808 13.7856 95.8888 14.0664 97.2616 14.628C98.6344 15.1688 99.8304 15.9488 100.85 16.968C101.869 17.9872 102.659 19.1832 103.221 20.556C103.782 21.9288 104.063 23.4368 104.063 25.08C104.063 26.7232 103.782 28.2312 103.221 29.604C102.659 30.9768 101.869 32.1728 100.85 33.192C99.8304 34.2112 98.6344 35.0016 97.2616 35.5632C95.8888 36.104 94.3808 36.3744 92.7376 36.3744C90.8032 36.3744 89.056 36.0416 87.496 35.376C85.9568 34.7104 84.6672 33.7432 83.6272 32.4744L86.8408 29.4792C87.6104 30.3528 88.4632 31.008 89.3992 31.4448C90.3352 31.8608 91.3648 32.0688 92.488 32.0688C93.424 32.0688 94.2872 31.9024 95.0776 31.5696C95.8888 31.216 96.5752 30.7376 97.1368 30.1344C97.7192 29.5104 98.156 28.772 98.4472 27.9192C98.7592 27.0664 98.9152 26.12 98.9152 25.08C98.9152 24.04 98.7592 23.0936 98.4472 22.2408C98.156 21.388 97.7192 20.66 97.1368 20.0568C96.5752 19.4328 95.8888 18.9544 95.0776 18.6216C94.2872 18.268 93.424 18.0912 92.488 18.0912C91.3648 18.0912 90.3352 18.3096 89.3992 18.7464C88.4632 19.1624 87.6104 19.8072 86.8408 20.6808L83.6272 17.6856C84.6672 16.4168 85.9568 15.4496 87.496 14.784C89.056 14.1184 90.8032 13.7856 92.7376 13.7856ZM118.349 36.3744C116.664 36.3744 115.093 36.104 113.637 35.5632C112.202 35.0016 110.954 34.2112 109.893 33.192C108.833 32.1728 108.001 30.9768 107.397 29.604C106.815 28.2312 106.524 26.7232 106.524 25.08C106.524 23.4368 106.815 21.9288 107.397 20.556C108.001 19.1832 108.833 17.9872 109.893 16.968C110.975 15.9488 112.233 15.1688 113.669 14.628C115.104 14.0664 116.674 13.7856 118.38 13.7856C120.273 13.7856 121.978 14.1184 123.497 14.784C125.036 15.4288 126.325 16.3856 127.365 17.6544L124.121 20.6496C123.372 19.7968 122.54 19.1624 121.625 18.7464C120.709 18.3096 119.711 18.0912 118.629 18.0912C117.61 18.0912 116.674 18.2576 115.821 18.5904C114.969 18.9232 114.23 19.4016 113.606 20.0256C112.982 20.6496 112.493 21.388 112.14 22.2408C111.807 23.0936 111.641 24.04 111.641 25.08C111.641 26.12 111.807 27.0664 112.14 27.9192C112.493 28.772 112.982 29.5104 113.606 30.1344C114.23 30.7584 114.969 31.2368 115.821 31.5696C116.674 31.9024 117.61 32.0688 118.629 32.0688C119.711 32.0688 120.709 31.8608 121.625 31.4448C122.54 31.008 123.372 30.3528 124.121 29.4792L127.365 32.4744C126.325 33.7432 125.036 34.7104 123.497 35.376C121.978 36.0416 120.262 36.3744 118.349 36.3744Z" fill="#003CB0"/>
<path d="M129.6 14.8V36.6422H154V14.8H150L141.8 25.6L133.636 14.8H129.6Z" fill="#003CB0"/>
<path d="M147.8 26L147.815 31.7778C149.3 31.7633 150.8 33.2078 150.8 34.6522V36.6437H132.8V34.6522C132.8 33.2078 134.3 31.7633 135.785 31.7778H135.8V26H138.8V31.7778H144.8V26H147.8Z" fill="white"/>
<path d="M53.0189 28C53.0189 41.8175 41.8175 53.0189 28 53.0189C14.1825 53.0189 2.98113 41.8175 2.98113 28C2.98113 14.1825 14.1825 2.98112 28 2.98112C41.8175 2.98112 53.0189 14.1825 53.0189 28Z" stroke="white" stroke-width="5.5"/>
<path d="M53 28C53 41.8071 41.8071 53 28 53C14.1929 53 3 41.8071 3 28C3 14.1929 14.1929 3 28 3C41.8071 3 53 14.1929 53 28Z" stroke="#003CB0" stroke-width="2"/>
<path d="M12.6785 32.5243L6.95935 38.2434C6.92398 38.2788 6.91382 38.3329 6.93329 38.379C9.5617 44.6025 13.6614 47.1144 20.547 50.0374C20.5992 50.0596 20.6606 50.0436 20.6946 49.9983L24.9648 44.3048C25.0104 44.2439 24.9894 44.1561 24.9221 44.1206C19.1457 41.0777 16.2735 37.9225 12.8708 32.5467C12.8285 32.4798 12.7344 32.4683 12.6785 32.5243Z" fill="white"/>
<path d="M12.1848 34.4897L6.96275 39.7164C6.92808 39.7511 6.91773 39.8043 6.93583 39.8499C9.35091 45.9339 12.5164 47.5006 18.8484 50.3531C18.9003 50.3765 18.9626 50.3619 18.9975 50.3169L23.0841 45.0628C23.1305 45.0031 23.1112 44.9152 23.0452 44.8784C17.7394 41.9164 15.5024 39.7552 12.3792 34.5155C12.338 34.4463 12.2417 34.4328 12.1848 34.4897Z" fill="#003CB0"/>
<path d="M30.0173 15.5466L30.0173 15.5466C29.1091 16.551 28.3188 17.3503 27.5942 18.083C27.2034 18.4783 26.8317 18.8542 26.4709 19.2325C25.454 20.299 24.5765 21.3344 23.7801 22.7281C23.457 23.2933 23.9382 23.9886 24.589 23.8679C25.2239 23.7501 25.7799 23.5958 26.3685 23.2967C26.9497 23.0013 27.5337 22.5795 28.2468 21.9608L28.2468 21.9608L28.2493 21.9587L32.998 17.798C33.2067 17.615 33.2998 17.3349 33.2465 17.0664C33.0764 16.2099 32.7296 15.6056 32.0733 15.358C31.7845 15.249 31.4923 15.2343 31.2466 15.2407C31.0803 15.2451 30.892 15.262 30.7231 15.2771C30.6554 15.2832 30.5908 15.2889 30.5321 15.2935C30.3334 15.309 30.1492 15.4007 30.0173 15.5466Z" fill="#003CB0" stroke="white" stroke-width="1.3"/>
<path d="M27.0558 36.9842L27.0388 36.997L27.0228 37.0109L22.5038 40.9105C22.312 41.0761 22.2141 41.3254 22.2403 41.5758C22.3212 42.3491 22.5329 42.9547 22.9867 43.3704C23.4267 43.7735 23.9899 43.8955 24.4892 43.9701C24.7318 44.0063 24.9719 43.9243 25.141 43.7607C28.138 40.8615 29.8422 39.1601 31.5682 36.5182C31.9205 35.9789 31.4937 35.2536 30.8344 35.3301C30.1929 35.4045 29.6278 35.5206 29.0203 35.779C28.4205 36.0342 27.8092 36.4155 27.0558 36.9842Z" fill="#003CB0" stroke="white" stroke-width="1.3"/>
<mask id="path-11-outside-1_304_3" maskUnits="userSpaceOnUse" x="12.0001" y="16.4256" width="25" height="20" fill="black">
<rect fill="white" x="12.0001" y="16.4256" width="25" height="20"/>
<path d="M15.1465 34.6633C14.246 34.2959 13.9316 33.9014 14.0122 32.9334C14.0146 32.9047 14.0277 32.877 14.0483 32.8566C17.7154 29.2239 20.5553 27.4656 26.0196 24.4747C29.4332 22.0625 31.1115 20.7353 33.1903 18.4986C33.2103 18.477 33.2385 18.4629 33.2678 18.4597C34.8067 18.2926 35.1501 18.7176 35.0261 20.2209C35.0236 20.2507 35.0098 20.2796 34.9882 20.3003C32.0596 23.1084 30.3291 24.4061 27.2199 26.2776C22.2699 29.1286 19.5844 30.8719 15.2737 34.6413C15.239 34.6717 15.1893 34.6808 15.1465 34.6633Z"/>
</mask>
<path d="M15.1465 34.6633C14.246 34.2959 13.9316 33.9014 14.0122 32.9334C14.0146 32.9047 14.0277 32.877 14.0483 32.8566C17.7154 29.2239 20.5553 27.4656 26.0196 24.4747C29.4332 22.0625 31.1115 20.7353 33.1903 18.4986C33.2103 18.477 33.2385 18.4629 33.2678 18.4597C34.8067 18.2926 35.1501 18.7176 35.0261 20.2209C35.0236 20.2507 35.0098 20.2796 34.9882 20.3003C32.0596 23.1084 30.3291 24.4061 27.2199 26.2776C22.2699 29.1286 19.5844 30.8719 15.2737 34.6413C15.239 34.6717 15.1893 34.6808 15.1465 34.6633Z" fill="#003CB0"/>
<path d="M14.0122 32.9334L15.3077 33.0413L15.3077 33.0413L14.0122 32.9334ZM15.1465 34.6633L15.6376 33.4597L15.6376 33.4597L15.1465 34.6633ZM15.2737 34.6413L14.418 33.6627L14.418 33.6627L15.2737 34.6413ZM27.2199 26.2776L27.8687 27.4041L27.8796 27.3979L27.8903 27.3914L27.2199 26.2776ZM34.9882 20.3003L34.0885 19.3619V19.3619L34.9882 20.3003ZM14.0483 32.8566L14.9632 33.7802L14.9632 33.7802L14.0483 32.8566ZM26.0196 24.4747L26.6438 25.615L26.709 25.5793L26.7698 25.5364L26.0196 24.4747ZM33.1903 18.4986L34.1425 19.3836L34.1425 19.3836L33.1903 18.4986ZM35.0261 20.2209L33.7305 20.1141L33.7305 20.1141L35.0261 20.2209ZM33.2678 18.4597L33.4081 19.7521L33.4081 19.7521L33.2678 18.4597ZM12.7167 32.8256C12.6651 33.4449 12.7152 34.1369 13.1374 34.756C13.5399 35.3462 14.1407 35.657 14.6554 35.867L15.6376 33.4597C15.4571 33.386 15.3565 33.3309 15.3018 33.2942C15.2534 33.2618 15.2633 33.2587 15.2855 33.2912C15.3455 33.3792 15.2787 33.39 15.3077 33.0413L12.7167 32.8256ZM16.1295 35.6199C20.3569 31.9233 22.9662 30.2278 27.8687 27.4041L26.5711 25.1511C21.5736 28.0294 18.812 29.8204 14.418 33.6627L16.1295 35.6199ZM27.8903 27.3914C31.083 25.4697 32.8902 24.1129 35.888 21.2386L34.0885 19.3619C31.2289 22.1038 29.5753 23.3425 26.5495 25.1638L27.8903 27.3914ZM14.9632 33.7802C18.501 30.2755 21.2151 28.5865 26.6438 25.615L25.3954 23.3343C19.8955 26.3448 16.9298 28.1722 13.1334 31.9331L14.9632 33.7802ZM26.7698 25.5364C30.2104 23.1051 31.9734 21.7174 34.1425 19.3836L32.2381 17.6136C30.2495 19.7531 28.656 21.0199 25.2694 23.413L26.7698 25.5364ZM36.3217 20.3278C36.3558 19.9144 36.3668 19.4867 36.3045 19.0876C36.2408 18.6789 36.0853 18.2057 35.7077 17.813C35.3241 17.414 34.8479 17.2393 34.4164 17.1696C34.0021 17.1027 33.5589 17.1205 33.1274 17.1673L33.4081 19.7521C33.7462 19.7154 33.923 19.7236 34.002 19.7364C34.0638 19.7464 33.9542 19.7406 33.8334 19.6148C33.7185 19.4953 33.7218 19.3999 33.7356 19.4884C33.7509 19.5866 33.7584 19.7757 33.7305 20.1141L36.3217 20.3278ZM34.1425 19.3836C33.9496 19.5912 33.6894 19.7216 33.4081 19.7521L33.1274 17.1673C32.7876 17.2042 32.4711 17.3628 32.238 17.6136L34.1425 19.3836ZM35.888 21.2386C36.1374 20.9995 36.293 20.6752 36.3217 20.3277L33.7305 20.1141C33.7542 19.8261 33.8822 19.5598 34.0885 19.3619L35.888 21.2386ZM14.6554 35.867C15.1691 36.0766 15.7374 35.9628 16.1295 35.6199L14.418 33.6627C14.7407 33.3805 15.2094 33.2849 15.6376 33.4597L14.6554 35.867ZM15.3077 33.0413C15.2839 33.3276 15.1579 33.5873 14.9632 33.7802L13.1334 31.9331C12.8976 32.1666 12.7453 32.4817 12.7167 32.8256L15.3077 33.0413Z" fill="white" mask="url(#path-11-outside-1_304_3)"/>
<path d="M29.9455 29.8854L29.9456 29.8855L29.9563 29.879C33.1171 27.9765 35.4797 26.0112 38.4276 23.185C38.6058 23.0142 38.6941 22.7654 38.6578 22.5159C38.5787 21.9714 38.4478 21.4151 38.0556 20.9838C37.6541 20.5422 37.0814 20.339 36.3826 20.2353C36.1306 20.1979 35.8763 20.2875 35.7034 20.4734L36.1785 20.9154L35.7034 20.4734C33.6652 22.6645 31.4382 24.589 28.076 26.9669C22.6188 29.9547 19.7203 31.7474 15.9996 35.4318L16.457 35.8937L15.9996 35.4318C15.8451 35.5848 15.7565 35.8027 15.7723 36.0327C15.8075 36.5477 15.9379 36.9769 16.2063 37.355C16.4621 37.7155 16.8108 37.981 17.1802 38.2261C17.4788 38.4243 17.862 38.3856 18.1166 38.1631C22.3775 34.4384 25.0245 32.7196 29.9455 29.8854Z" fill="#003CB0" stroke="white" stroke-width="1.3"/>
<mask id="path-14-outside-2_304_3" maskUnits="userSpaceOnUse" x="17.264" y="21.8738" width="26" height="20" fill="black">
<rect fill="white" x="17.264" y="21.8738" width="26" height="20"/>
<path d="M20.6622 40.4799C19.7441 40.0582 19.1936 39.9859 19.2713 39.0962C19.2737 39.0679 19.2867 39.0408 19.3068 39.0209C22.9785 35.3835 26.5581 32.914 32.0228 29.9229C35.4365 27.5107 37.1147 26.1835 39.1935 23.9468C39.2136 23.9252 39.2417 23.9111 39.271 23.9079C40.81 23.7408 41.1533 24.1658 41.0293 25.6691C41.0269 25.6989 41.013 25.7278 40.9915 25.7485C38.0628 28.5566 36.3324 29.8543 33.2231 31.7258C28.2747 34.5759 25.1097 36.6899 20.7968 40.4604C20.7599 40.4926 20.7067 40.5004 20.6622 40.4799Z"/>
</mask>
<path d="M20.6622 40.4799C19.7441 40.0582 19.1936 39.9859 19.2713 39.0962C19.2737 39.0679 19.2867 39.0408 19.3068 39.0209C22.9785 35.3835 26.5581 32.914 32.0228 29.9229C35.4365 27.5107 37.1147 26.1835 39.1935 23.9468C39.2136 23.9252 39.2417 23.9111 39.271 23.9079C40.81 23.7408 41.1533 24.1658 41.0293 25.6691C41.0269 25.6989 41.013 25.7278 40.9915 25.7485C38.0628 28.5566 36.3324 29.8543 33.2231 31.7258C28.2747 34.5759 25.1097 36.6899 20.7968 40.4604C20.7599 40.4926 20.7067 40.5004 20.6622 40.4799Z" fill="#003CB0"/>
<path d="M19.2713 39.0962L20.5663 39.2091L20.5663 39.2091L19.2713 39.0962ZM20.6622 40.4799L21.2048 39.2986L21.2048 39.2985L20.6622 40.4799ZM20.7968 40.4604L19.9412 39.4817L19.9412 39.4817L20.7968 40.4604ZM33.2231 31.7258L33.872 32.8524L33.8828 32.8461L33.8936 32.8396L33.2231 31.7258ZM40.9915 25.7485L40.0918 24.8101V24.8101L40.9915 25.7485ZM19.3068 39.0209L20.2217 39.9445L20.2217 39.9445L19.3068 39.0209ZM32.0228 29.9229L32.647 31.0632L32.7123 31.0275L32.773 30.9846L32.0228 29.9229ZM39.1935 23.9468L40.1458 24.8318L40.1458 24.8318L39.1935 23.9468ZM41.0293 25.6691L39.7337 25.5623L39.7337 25.5623L41.0293 25.6691ZM39.271 23.9079L39.4113 25.2003L39.4113 25.2003L39.271 23.9079ZM17.9762 38.9832C17.9457 39.3326 17.9653 39.7226 18.1186 40.1085C18.2797 40.5137 18.5424 40.8004 18.8133 41.0035C19.0589 41.1877 19.3253 41.3127 19.5175 41.3984C19.7778 41.5144 19.8718 41.5474 20.1196 41.6612L21.2048 39.2985C21.0747 39.2388 20.9535 39.1863 20.848 39.1411C20.7375 39.0937 20.6545 39.0586 20.5757 39.0235C20.409 38.9492 20.3705 38.9214 20.3733 38.9236C20.4016 38.9447 20.4839 39.0202 20.5348 39.1483C20.5781 39.2572 20.558 39.3046 20.5663 39.2091L17.9762 38.9832ZM21.6525 41.4391C25.8859 37.738 28.9769 35.6717 33.872 32.8524L32.5743 30.5993C27.5725 33.4802 24.3334 35.6418 19.9412 39.4817L21.6525 41.4391ZM33.8936 32.8396C37.0863 30.9179 38.8935 29.5611 41.8912 26.6869L40.0918 24.8101C37.2322 27.552 35.5785 28.7908 32.5527 30.612L33.8936 32.8396ZM20.2217 39.9445C23.7804 36.4191 27.2499 34.0174 32.647 31.0632L31.3986 28.7825C25.8664 31.8107 22.1767 34.348 18.3919 38.0974L20.2217 39.9445ZM32.773 30.9846C36.2137 28.5533 37.9767 27.1656 40.1458 24.8318L38.2413 23.0618C36.2528 25.2013 34.6592 26.4681 31.2726 28.8612L32.773 30.9846ZM42.3249 25.776C42.359 25.3627 42.37 24.9349 42.3078 24.5358C42.244 24.1271 42.0885 23.6539 41.711 23.2612C41.3274 22.8622 40.8511 22.6875 40.4197 22.6178C40.0053 22.5509 39.5621 22.5687 39.1307 22.6155L39.4113 25.2003C39.7494 25.1636 39.9262 25.1718 40.0052 25.1846C40.0671 25.1946 39.9575 25.1888 39.8366 25.063C39.7217 24.9436 39.725 24.8481 39.7389 24.9366C39.7542 25.0348 39.7616 25.2239 39.7337 25.5623L42.3249 25.776ZM40.1458 24.8318C39.9528 25.0394 39.6926 25.1698 39.4113 25.2003L39.1307 22.6155C38.7909 22.6524 38.4744 22.811 38.2413 23.0618L40.1458 24.8318ZM41.8912 26.6869C42.1406 26.4477 42.2963 26.1235 42.3249 25.7759L39.7337 25.5623C39.7575 25.2743 39.8854 25.008 40.0918 24.8101L41.8912 26.6869ZM20.1195 41.6612C20.6292 41.8953 21.2299 41.8085 21.6525 41.4391L19.9412 39.4817C20.2899 39.1768 20.7842 39.1054 21.2048 39.2986L20.1195 41.6612ZM20.5663 39.2091C20.5414 39.4952 20.4148 39.7531 20.2217 39.9445L18.3919 38.0973C18.1585 38.3285 18.0061 38.6407 17.9762 38.9832L20.5663 39.2091Z" fill="white" mask="url(#path-14-outside-2_304_3)"/>
<path d="M34.513 16.8336C34.6961 16.6489 34.7195 16.4115 34.7036 16.2424C34.6874 16.07 34.6262 15.8968 34.5502 15.7392C34.3963 15.4203 34.1355 15.0701 33.8125 14.7489C33.4895 14.4277 33.138 14.169 32.8184 14.0172C32.6606 13.9422 32.4872 13.8821 32.3149 13.867C32.146 13.8523 31.909 13.8774 31.7259 14.062C31.5428 14.2466 31.5193 14.4841 31.5353 14.6532C31.5515 14.8256 31.6127 14.9988 31.6887 15.1564C31.8425 15.4753 32.1034 15.8255 32.4264 16.1467C32.7494 16.4679 33.1009 16.7266 33.4205 16.8784C33.5783 16.9534 33.7517 17.0135 33.924 17.0286C34.0929 17.0433 34.3299 17.0182 34.513 16.8336Z" fill="#003CB0" stroke="white" stroke-width="0.9"/>
<path d="M43.2961 24.3887C43.4839 24.1517 43.4267 23.8748 43.3796 23.7332C43.3254 23.5703 43.2277 23.4067 43.1178 23.2558C42.8939 22.9488 42.5532 22.6055 42.1521 22.2867C41.7509 21.968 41.3396 21.7139 40.9901 21.5654C40.8184 21.4924 40.6371 21.4344 40.4663 21.4185C40.3179 21.4048 40.0356 21.412 39.8478 21.649C39.6601 21.886 39.7172 22.1629 39.7643 22.3045C39.8185 22.4674 39.9162 22.631 40.0262 22.7819C40.25 23.0889 40.5907 23.4322 40.9918 23.751C41.393 24.0697 41.8043 24.3239 42.1538 24.4724C42.3255 24.5453 42.5068 24.6034 42.6776 24.6192C42.826 24.6329 43.1083 24.6257 43.2961 24.3887Z" fill="#003CB0" stroke="white" stroke-width="0.9"/>
<path d="M39.8617 21.6546C40 21.5084 40.0295 21.3307 40.0267 21.2015C40.0239 21.0742 39.9902 20.9519 39.9512 20.8476C39.8726 20.637 39.7343 20.4005 39.566 20.1588C39.2252 19.6691 38.7036 19.0762 38.0837 18.4883C37.4638 17.9004 36.8442 17.4111 36.3374 17.097C36.0872 16.9419 35.8439 16.8164 35.6296 16.7492C35.5235 16.716 35.3996 16.6889 35.2726 16.693C35.1436 16.6972 34.968 16.7364 34.8298 16.8826C34.6915 17.0288 34.6619 17.2065 34.6648 17.3357C34.6676 17.4629 34.7013 17.5853 34.7403 17.6896C34.8189 17.9001 34.9572 18.1367 35.1255 18.3784C35.4663 18.8681 35.9879 19.4609 36.6078 20.0488C37.2277 20.6367 37.8473 21.126 38.3541 21.4402C38.6043 21.5953 38.8476 21.7207 39.0619 21.7879C39.168 21.8212 39.2918 21.8483 39.4189 21.8442C39.5479 21.84 39.7235 21.8007 39.8617 21.6546Z" fill="#003CB0" stroke="white" stroke-width="0.9"/>
</svg>
